<?xml version="1.0" encoding="UTF-8" standalone="no"?>
<!DOCTYPE svg PUBLIC "-//W3C//DTD SVG 1.1//EN" "http://www.w3.org/Graphics/SVG/1.1/DTD/svg11.dtd">
<svg width="100%" height="100%" viewBox="0 0 190 190" version="1.1" xmlns="http://www.w3.org/2000/svg" xmlns:xlink="http://www.w3.org/1999/xlink" xml:space="preserve" xmlns:serif="http://www.serif.com/" style="fill-rule:evenodd;clip-rule:evenodd;">
    <g transform="matrix(1,0,0,1,-41.304,-25.247)">
        <g id="Isolation_Mode">
            <g>
                <g>
                    <path d="M135.754,26.07L148.262,27.33L148.262,36.888L160.344,40.003L160.344,50.013L111.165,50.013L111.165,40.003L123.247,36.888L123.247,27.33L135.754,26.07Z" style="fill:rgb(167,13,26);fill-rule:nonzero;"/>
                    <path d="M42.128,120.216L43.388,107.708L52.946,107.708L56.061,95.626L66.071,95.626L66.071,144.806L56.061,144.806L52.946,132.724L43.388,132.724L42.128,120.216Z" style="fill:rgb(167,13,26);fill-rule:nonzero;"/>
                    <path d="M136.274,213.842L123.767,212.583L123.767,203.024L111.685,199.91L111.685,189.9L160.864,189.9L160.864,199.91L148.782,203.024L148.782,212.583L136.274,213.842Z" style="fill:rgb(167,13,26);fill-rule:nonzero;"/>
                    <path d="M229.9,119.696L228.641,132.204L219.083,132.204L215.968,144.286L205.958,144.286L205.958,95.106L215.968,95.106L219.083,107.188L228.641,107.188L229.9,119.696Z" style="fill:rgb(167,13,26);fill-rule:nonzero;"/>
                    <path d="M162.323,52.063L162.323,39.258C158.311,37.946 154.169,36.926 149.919,36.221L149.919,37.223L149.919,26.28C145.384,25.6 140.741,25.247 136.015,25.247C131.29,25.247 126.646,25.601 122.111,26.28L122.111,36.221C117.861,36.926 113.716,37.946 109.707,39.26L109.705,41.342C109.705,41.342 109.707,41.342 109.707,41.34L109.707,51.738C110.695,51.359 111.697,51.006 112.707,50.672L112.707,40.397C115.771,39.497 118.91,38.768 122.111,38.225L122.111,48.237C123.103,48.049 124.101,47.876 125.109,47.731L125.109,27.881C128.199,27.512 131.338,27.307 134.515,27.254L134.515,46.992C134.878,46.986 135.24,46.965 135.605,46.965C136.246,46.965 136.878,46.996 137.515,47.014L137.515,27.254C140.691,27.307 143.829,27.512 146.919,27.881L146.919,47.848C147.925,48.004 148.925,48.184 149.919,48.383L149.919,38.225C153.12,38.768 156.259,39.496 159.323,40.397L159.323,50.95C160.333,51.3 161.333,51.671 162.323,52.063Z" style="fill-rule:nonzero;"/>
                    <path d="M57.399,93.647L55.317,93.649C54.005,97.659 52.983,101.801 52.28,106.051L53.28,106.053L43.341,106.053L42.339,106.051C41.657,110.588 41.304,115.231 41.304,119.955C41.304,124.682 41.658,129.324 42.339,133.861L52.28,133.861C52.983,138.111 54.005,142.254 55.317,146.265L67.795,146.265C67.418,145.275 67.065,144.275 66.729,143.265L56.456,143.265C55.554,140.201 54.825,137.062 54.282,133.861L64.294,133.861C64.108,132.867 63.935,131.869 63.788,130.861L43.938,130.861C43.569,127.771 43.364,124.632 43.313,121.457L63.051,121.457C63.045,121.092 63.022,120.732 63.022,120.367C63.022,119.726 63.055,119.094 63.071,118.457L43.313,118.457C43.364,115.279 43.569,112.141 43.938,109.053L63.905,109.053C64.063,108.045 64.243,107.045 64.442,106.053L54.282,106.053C54.825,102.852 55.553,99.713 56.454,96.649L67.007,96.649C67.357,95.637 67.728,94.639 68.12,93.649L57.397,93.649C57.399,93.649 57.399,93.647 57.399,93.647Z" style="fill-rule:nonzero;"/>
                    <path d="M109.706,187.851L109.706,200.655C113.718,201.967 117.86,202.989 122.11,203.692L122.11,202.69L122.11,213.633C126.645,214.315 131.288,214.668 136.014,214.668C140.739,214.668 145.383,214.314 149.918,213.633L149.918,203.692C154.168,202.989 158.313,201.967 162.322,200.653L162.324,198.573L162.322,198.573L162.322,188.175C161.334,188.554 160.332,188.907 159.322,189.243L159.322,199.516C156.258,200.416 153.119,201.145 149.918,201.69L149.918,191.676C148.926,191.864 147.928,192.037 146.92,192.184L146.92,212.034C143.83,212.403 140.691,212.608 137.514,212.659L137.514,192.92C137.151,192.926 136.789,192.947 136.424,192.947C135.783,192.947 135.151,192.916 134.514,192.9L134.514,212.658C131.338,212.607 128.2,212.402 125.11,212.033L125.11,192.066C124.104,191.908 123.104,191.728 122.11,191.529L122.11,201.689C118.909,201.146 115.77,200.418 112.706,199.517L112.706,188.964C111.696,188.614 110.696,188.241 109.706,187.851Z" style="fill-rule:nonzero;"/>
                    <path d="M214.63,146.266L216.712,146.266C218.024,142.254 219.046,138.112 219.749,133.862L218.749,133.862L229.69,133.862C230.372,129.327 230.725,124.684 230.725,119.958C230.725,115.233 230.371,110.589 229.69,106.054L219.749,106.054C219.046,101.804 218.024,97.659 216.712,93.65L214.63,93.648L214.63,93.65L204.234,93.65C204.611,94.638 204.964,95.64 205.3,96.65L215.573,96.65C216.475,99.714 217.204,102.853 217.747,106.054L207.735,106.054C207.921,107.046 208.094,108.044 208.241,109.052L228.091,109.052C228.46,112.142 228.665,115.281 228.716,118.458L208.978,118.458C208.984,118.821 209.007,119.183 209.007,119.548C209.007,120.189 208.974,120.821 208.958,121.458L228.716,121.458C228.665,124.634 228.46,127.772 228.091,130.862L208.124,130.862C207.966,131.868 207.786,132.868 207.587,133.862L217.747,133.862C217.204,137.063 216.476,140.202 215.575,143.266L205.022,143.266C204.672,144.276 204.301,145.276 203.909,146.266L214.632,146.266L214.63,146.266Z" style="fill-rule:nonzero;"/>
                    <circle cx="136.015" cy="119.958" r="56.498" style="fill:none;stroke:rgb(81,28,0);stroke-width:1px;"/>
                    <g>
                        <g>
                            <path d="M199.694,95.149L160.821,95.149L160.821,56.276L111.204,56.276L111.204,95.149L72.333,95.149L72.333,144.766L111.204,144.766L111.204,183.637L160.821,183.637L160.821,144.766L199.694,144.766L199.694,95.149Z" style="fill:rgb(167,13,26);fill-rule:nonzero;"/>
                        </g>
                        <g>
                            <path d="M199.694,95.149L160.821,95.149L160.821,56.276L111.204,56.276L111.204,95.149L72.333,95.149L72.333,144.766L111.204,144.766L111.204,183.637L160.821,183.637L160.821,144.766L199.694,144.766L199.694,95.149Z" style="fill:none;fill-rule:nonzero;stroke:black;stroke-width:3px;"/>
                        </g>
                    </g>
                    <path d="M136.013,45.53C94.909,45.53 61.587,78.852 61.587,119.956C61.587,161.061 94.909,194.384 136.013,194.384C177.118,194.384 210.441,161.062 210.441,119.956C210.44,78.852 177.118,45.53 136.013,45.53ZM136.013,172.247C107.134,172.247 83.724,148.835 83.724,119.956C83.724,91.077 107.134,67.667 136.013,67.667C164.892,67.667 188.302,91.077 188.302,119.956C188.302,148.835 164.892,172.247 136.013,172.247Z" style="fill:rgb(255,216,138);fill-rule:nonzero;stroke:black;stroke-width:3px;"/>
                    <circle cx="136.014" cy="119.958" r="74.808" style="fill:none;stroke:black;stroke-width:4px;"/>
                    <g>
                        <g>
                            <path d="M83.767,87.759C83.812,87.82 83.909,87.902 84.057,88.005C84.156,88.073 84.329,88.06 84.579,87.963C84.829,87.867 85.109,87.711 85.42,87.495C85.731,87.28 86.052,87.011 86.387,86.688C86.721,86.365 87.022,86.011 87.289,85.627C87.803,84.888 88.093,84.287 88.161,83.822C88.229,83.358 88.1,83.012 87.775,82.786C87.598,82.662 87.367,82.725 87.085,82.974C86.802,83.224 86.481,83.559 86.122,83.981C85.762,84.403 85.374,84.857 84.956,85.341C84.539,85.826 84.101,86.245 83.643,86.599C83.185,86.953 82.716,87.186 82.236,87.298C81.756,87.41 81.28,87.301 80.807,86.973C80.433,86.713 80.153,86.39 79.967,86.005C79.781,85.62 79.689,85.197 79.688,84.736C79.687,84.275 79.779,83.78 79.964,83.251C80.149,82.722 80.43,82.187 80.807,81.645C81.157,81.143 81.514,80.697 81.879,80.308C82.245,79.919 82.583,79.585 82.895,79.305C83.207,79.025 83.473,78.794 83.695,78.612C83.917,78.43 84.062,78.29 84.131,78.191C84.199,78.093 84.232,77.998 84.229,77.908C84.226,77.818 84.212,77.728 84.187,77.637L84.359,77.515L85.704,79.963L85.492,80.079L85.329,79.966C85.24,79.904 85.082,79.937 84.855,80.064C84.628,80.191 84.375,80.377 84.095,80.621C83.816,80.865 83.525,81.153 83.222,81.482C82.919,81.813 82.648,82.15 82.408,82.495C81.963,83.136 81.725,83.635 81.695,83.994C81.664,84.353 81.733,84.591 81.901,84.707C82.068,84.824 82.256,84.822 82.463,84.703C82.67,84.584 82.893,84.396 83.13,84.137C83.368,83.879 83.627,83.576 83.904,83.228C84.182,82.881 84.48,82.532 84.796,82.182C85.112,81.832 85.442,81.506 85.784,81.203C86.126,80.9 86.483,80.666 86.854,80.5C87.225,80.334 87.613,80.26 88.017,80.278C88.421,80.296 88.835,80.452 89.259,80.747C89.584,80.973 89.858,81.262 90.081,81.615C90.304,81.967 90.43,82.391 90.458,82.886C90.487,83.381 90.388,83.948 90.163,84.588C89.937,85.228 89.547,85.947 88.992,86.745C88.56,87.366 88.159,87.88 87.788,88.287C87.417,88.695 87.08,89.027 86.777,89.284C86.474,89.541 86.224,89.737 86.029,89.871C85.833,90.005 85.704,90.117 85.643,90.205C85.602,90.264 85.586,90.33 85.594,90.401C85.603,90.473 85.615,90.55 85.629,90.634L85.462,90.78L83.592,87.857L83.767,87.759Z" style="fill:rgb(81,28,0);fill-rule:nonzero;"/>
                            <path d="M95.105,67.021C95.029,67.014 94.896,67.075 94.705,67.203L94.566,67.037L97.412,64.66L97.551,64.826C97.391,64.991 97.308,65.111 97.301,65.187C97.294,65.263 97.318,65.333 97.371,65.398L100.464,69.1C100.972,69.708 101.3,70.302 101.448,70.882C101.596,71.462 101.602,72.02 101.464,72.557C101.326,73.094 101.065,73.605 100.681,74.091C100.297,74.576 99.842,75.038 99.317,75.476C98.792,75.914 98.256,76.28 97.711,76.572C97.165,76.864 96.616,77.03 96.063,77.07C95.51,77.11 94.961,77.005 94.417,76.756C93.873,76.507 93.347,76.079 92.839,75.471L89.747,71.769C89.693,71.705 89.628,71.669 89.552,71.662C89.476,71.655 89.343,71.716 89.153,71.843L89.014,71.677L91.86,69.3L91.999,69.466C91.839,69.631 91.756,69.751 91.749,69.827C91.742,69.903 91.766,69.973 91.819,70.038L94.912,73.74C95.358,74.274 95.829,74.53 96.326,74.506C96.823,74.483 97.347,74.24 97.899,73.778C98.452,73.317 98.784,72.844 98.895,72.36C99.007,71.876 98.839,71.367 98.393,70.833L95.3,67.128C95.247,67.064 95.181,67.028 95.105,67.021Z" style="fill:rgb(81,28,0);fill-rule:nonzero;"/>
                            <path d="M104.795,60.54C104.724,60.512 104.579,60.533 104.361,60.602L104.275,60.404L108.252,58.671L108.338,58.869C108.156,58.962 108.043,59.04 107.999,59.105C107.956,59.17 107.945,59.23 107.969,59.285C107.979,59.307 108.094,59.375 108.313,59.489C108.533,59.603 108.815,59.741 109.162,59.905C109.508,60.068 109.897,60.249 110.33,60.446C110.763,60.644 111.199,60.84 111.637,61.035C112.075,61.23 112.495,61.413 112.898,61.585C113.3,61.757 113.646,61.904 113.935,62.026L112.015,57.62C111.934,57.433 111.775,57.384 111.539,57.474L111.453,57.276L114.473,55.96L114.559,56.158C114.36,56.271 114.246,56.363 114.218,56.434C114.19,56.505 114.193,56.579 114.226,56.656L117.576,64.346C117.61,64.423 117.662,64.475 117.733,64.503C117.804,64.531 117.949,64.51 118.168,64.441L118.254,64.639L115.119,66.005L115.033,65.807C115.187,65.74 115.282,65.679 115.317,65.624C115.352,65.57 115.358,65.515 115.334,65.46C115.319,65.427 115.285,65.393 115.23,65.357C115.175,65.321 115.067,65.268 114.904,65.195C114.741,65.122 114.504,65.019 114.191,64.887C113.878,64.755 113.463,64.576 112.945,64.349C112.427,64.123 111.787,63.839 111.023,63.498C110.259,63.157 109.337,62.737 108.256,62.239L110.514,67.421C110.547,67.498 110.6,67.55 110.671,67.579C110.742,67.607 110.887,67.586 111.106,67.517L111.192,67.715L108.056,69.081L107.97,68.883C108.169,68.77 108.283,68.678 108.311,68.607C108.339,68.536 108.336,68.462 108.303,68.385L104.953,60.695C104.918,60.62 104.866,60.567 104.795,60.54Z" style="fill:rgb(81,28,0);fill-rule:nonzero;"/>
                            <path d="M122.562,54.188C122.501,54.142 122.356,54.122 122.127,54.128L122.098,53.914L128.022,53.123C128.842,53.014 129.572,53.037 130.21,53.194C130.848,53.351 131.392,53.615 131.841,53.985C132.29,54.355 132.651,54.812 132.923,55.357C133.195,55.902 133.376,56.507 133.465,57.173C133.546,57.779 133.52,58.38 133.388,58.972C133.255,59.565 133.007,60.107 132.642,60.597C132.278,61.088 131.801,61.506 131.211,61.85C130.621,62.195 129.91,62.423 129.078,62.535L123.351,63.3L123.322,63.086C123.545,63.032 123.679,62.975 123.726,62.914C123.773,62.853 123.79,62.782 123.779,62.698L122.669,54.384C122.659,54.299 122.624,54.234 122.562,54.188ZM128.513,60.467C129.452,60.342 130.098,60.01 130.451,59.473C130.803,58.936 130.928,58.286 130.826,57.525C130.724,56.764 130.433,56.17 129.952,55.744C129.471,55.318 128.761,55.168 127.822,55.293L125.556,55.595L126.247,60.769L128.513,60.467Z" style="fill:rgb(81,28,0);fill-rule:nonzero;"/>
                            <path d="M140.883,61.857C140.875,61.917 140.89,61.964 140.927,61.999C140.964,62.034 141.049,62.061 141.18,62.078L141.151,62.292L137.993,61.869L138.022,61.655C138.156,61.649 138.256,61.623 138.323,61.577C138.389,61.532 138.462,61.441 138.541,61.306C138.573,61.25 138.654,61.097 138.784,60.848C138.914,60.599 139.083,60.286 139.291,59.908C139.499,59.531 139.73,59.111 139.986,58.648C140.241,58.186 140.498,57.715 140.757,57.235C141.015,56.755 141.268,56.286 141.517,55.829C141.766,55.372 141.987,54.963 142.181,54.601C142.375,54.24 142.532,53.946 142.653,53.72C142.774,53.494 142.836,53.375 142.837,53.364C142.845,53.304 142.812,53.258 142.738,53.223C142.664,53.189 142.586,53.161 142.504,53.138L142.533,52.924L147.189,53.548L147.161,53.762C147.064,53.761 146.984,53.768 146.922,53.784C146.859,53.8 146.821,53.855 146.809,53.951C146.806,53.975 146.842,54.137 146.916,54.437C146.99,54.737 147.087,55.129 147.204,55.611C147.321,56.093 147.457,56.637 147.612,57.245C147.767,57.853 147.929,58.474 148.098,59.108C148.267,59.742 148.429,60.36 148.585,60.962C148.739,61.564 148.882,62.104 149.013,62.581C149.079,62.808 149.14,62.961 149.197,63.041C149.252,63.121 149.334,63.168 149.441,63.183L149.412,63.397L145.898,62.926L145.927,62.712C146.155,62.731 146.277,62.674 146.295,62.543C146.296,62.531 146.277,62.447 146.238,62.291C146.199,62.135 146.155,61.959 146.109,61.765C146.063,61.571 146.017,61.387 145.975,61.211C145.932,61.036 145.908,60.918 145.904,60.857L141.676,60.291C141.514,60.596 141.384,60.845 141.285,61.038C141.186,61.231 141.108,61.384 141.051,61.497C140.993,61.611 140.952,61.693 140.927,61.744C140.9,61.796 140.886,61.833 140.883,61.857ZM145.629,59.369L144.467,54.891L142.311,58.924L145.629,59.369Z" style="fill:rgb(81,28,0);fill-rule:nonzero;"/>
                            <path d="M157.867,56.457C157.839,56.386 157.725,56.294 157.526,56.181L157.612,55.983L161.589,57.717L161.502,57.915C161.311,57.844 161.176,57.815 161.099,57.827C161.022,57.839 160.971,57.873 160.948,57.928C160.938,57.95 160.967,58.08 161.033,58.319C161.098,58.557 161.19,58.859 161.305,59.224C161.421,59.589 161.554,59.997 161.704,60.449C161.853,60.901 162.007,61.353 162.162,61.807C162.317,62.261 162.469,62.694 162.617,63.105C162.764,63.517 162.892,63.87 162.999,64.165L164.92,59.76C165.002,59.573 164.93,59.424 164.703,59.312L164.79,59.114L167.809,60.431L167.723,60.629C167.504,60.56 167.36,60.54 167.288,60.567C167.216,60.594 167.165,60.648 167.131,60.724L163.778,68.412C163.744,68.489 163.741,68.563 163.769,68.634C163.797,68.705 163.911,68.798 164.11,68.91L164.024,69.108L160.889,67.741L160.975,67.543C161.129,67.61 161.238,67.638 161.302,67.627C161.365,67.615 161.409,67.583 161.434,67.527C161.448,67.494 161.45,67.445 161.438,67.381C161.427,67.317 161.392,67.201 161.335,67.032C161.277,66.863 161.19,66.619 161.075,66.3C160.959,65.981 160.807,65.555 160.621,65.022C160.435,64.489 160.206,63.827 159.936,63.035C159.665,62.243 159.345,61.282 158.974,60.151L156.715,65.332C156.681,65.409 156.678,65.483 156.706,65.554C156.733,65.625 156.848,65.717 157.047,65.83L156.961,66.028L153.826,64.661L153.912,64.463C154.131,64.532 154.275,64.553 154.347,64.525C154.419,64.497 154.47,64.444 154.504,64.368L157.857,56.679C157.892,56.602 157.895,56.528 157.867,56.457Z" style="fill:rgb(81,28,0);fill-rule:nonzero;"/>
                            <path d="M179.022,72.691C179.054,72.67 179.085,72.647 179.117,72.618C179.149,72.589 179.183,72.552 179.221,72.506C179.282,72.432 179.281,72.306 179.216,72.129C179.152,71.952 179.04,71.748 178.881,71.516C178.722,71.285 178.525,71.037 178.29,70.775C178.055,70.513 177.79,70.259 177.493,70.015C177.215,69.786 176.896,69.579 176.537,69.393C176.178,69.207 175.809,69.082 175.433,69.021C175.057,68.96 174.686,68.985 174.322,69.098C173.958,69.21 173.631,69.443 173.342,69.795C173.052,70.148 172.888,70.513 172.849,70.892C172.809,71.271 172.856,71.64 172.989,71.997C173.122,72.354 173.315,72.692 173.568,73.008C173.82,73.324 174.086,73.596 174.364,73.825C174.484,73.924 174.692,74.059 174.986,74.231C175.28,74.403 175.587,74.558 175.908,74.697C176.228,74.836 176.526,74.941 176.802,75.012C177.077,75.083 177.257,75.068 177.341,74.966C177.379,74.92 177.401,74.875 177.404,74.832C177.408,74.789 177.417,74.741 177.428,74.689L177.661,74.717L177.3,78.077L177.053,78.037C177.073,77.975 177.072,77.924 177.051,77.884C177.03,77.843 176.995,77.804 176.949,77.766C176.885,77.713 176.721,77.645 176.463,77.564C176.203,77.483 175.882,77.359 175.499,77.191C175.116,77.024 174.687,76.804 174.213,76.531C173.738,76.258 173.242,75.907 172.723,75.481C172.166,75.024 171.674,74.499 171.244,73.906C170.815,73.313 170.511,72.682 170.33,72.013C170.149,71.345 170.117,70.666 170.232,69.976C170.348,69.287 170.662,68.632 171.171,68.011C171.682,67.39 172.264,66.955 172.917,66.708C173.57,66.461 174.242,66.361 174.934,66.408C175.626,66.455 176.309,66.625 176.986,66.917C177.662,67.209 178.279,67.584 178.836,68.041C179.392,68.498 179.847,68.922 180.201,69.314C180.555,69.706 180.84,70.053 181.057,70.356C181.264,70.651 181.421,70.885 181.529,71.058C181.634,71.231 181.725,71.348 181.8,71.409C181.884,71.477 181.984,71.497 182.1,71.469L182.219,71.636L179.082,72.902L179.022,72.691Z" style="fill:rgb(81,28,0);fill-rule:nonzero;"/>
                            <path d="M186.864,86.038C186.948,85.949 186.998,85.849 187.016,85.74C187.034,85.631 186.99,85.504 186.884,85.358L184.928,82.641L183.57,83.62L186.947,88.308C187.003,88.386 187.071,88.425 187.153,88.426C187.234,88.426 187.375,88.369 187.574,88.256L187.7,88.431L185.203,90.23L185.077,90.055C185.189,89.944 185.246,89.859 185.247,89.799C185.248,89.739 185.221,89.67 185.165,89.592L179.916,82.303L180.091,82.177C180.243,82.348 180.358,82.44 180.433,82.452C180.509,82.464 180.58,82.446 180.649,82.397L187.456,77.495C187.523,77.446 187.564,77.384 187.576,77.308C187.589,77.233 187.537,77.096 187.424,76.896L187.6,76.77L192.849,84.058C192.905,84.136 192.974,84.175 193.056,84.176C193.137,84.176 193.268,84.126 193.448,84.027L193.574,84.202L191.033,86.033L190.906,85.858C191.057,85.719 191.146,85.611 191.172,85.534C191.197,85.456 191.183,85.379 191.126,85.301L187.749,80.613L186.537,81.486L188.494,84.203C188.598,84.349 188.706,84.431 188.814,84.449C188.923,84.467 189.033,84.45 189.145,84.4L189.271,84.575L186.993,86.216L186.864,86.038Z" style="fill:rgb(81,28,0);fill-rule:nonzero;"/>
                        </g>
                    </g>
                    <circle cx="136.014" cy="119.958" r="41.13" style="fill:rgb(255,216,138);stroke:black;stroke-width:3px;"/>
                    <g>
                        <path d="M132.962,91.233L132.962,86.258C115.733,87.832 102.235,102.317 102.235,119.957L128.016,119.957L128.016,147.705C119.34,145.187 112.348,138.717 109.121,130.365L104.5,132.15C109.033,143.89 119.932,152.462 132.961,153.654L132.961,115.013L107.61,115.013C109.784,102.415 120.11,92.612 132.962,91.233Z" style="fill:rgb(81,28,0);fill-rule:nonzero;"/>
                        <path d="M150.419,131.756L150.419,150.477C161.866,145.086 169.794,133.452 169.794,119.957C169.794,106.008 161.323,94.037 149.245,88.908L149.245,94.193L149.229,94.22C158.577,99.005 164.973,108.736 164.973,119.956C164.973,128.503 161.262,136.185 155.366,141.476L155.366,110.501L143.911,132.105L143.911,87.165C142.306,86.782 140.653,86.517 138.966,86.372L138.966,153.431L150.419,131.756Z" style="fill:rgb(81,28,0);fill-rule:nonzero;"/>
                    </g>
                </g>
                <g transform="matrix(1.1069,0,0,1.1069,-227.048,-59.8428)">
                    <path d="M285.904,196.071L282.731,202.63C282.676,202.758 282.62,202.839 282.563,202.898C282.406,203.062 282.314,203.064 282.116,202.941L281.935,203.128L284.443,205.541L284.601,205.377C284.505,205.195 284.503,205.08 284.627,204.951C284.684,204.892 284.786,204.833 284.911,204.75L290.038,201.649L287.114,206.869C287.036,206.997 286.981,207.102 286.924,207.161C286.8,207.29 286.685,207.292 286.499,207.203L286.342,207.367L288.756,209.69L288.936,209.502C288.817,209.298 288.803,209.171 288.905,209.066C288.984,208.984 289.086,208.924 289.211,208.864L295.111,205.875C295.544,205.66 295.932,205.514 296.415,205.528L296.573,205.364L294.499,203.368L294.341,203.532C294.437,203.714 294.439,203.829 294.315,203.958C294.292,203.982 294.201,204.03 294.031,204.136L289.515,206.719L292.05,202.231C292.15,202.057 292.206,201.952 292.228,201.929C292.341,201.811 292.468,201.82 292.653,201.909L292.811,201.745L290.069,199.107L289.911,199.271C290.007,199.453 290.009,199.568 289.885,199.697C289.851,199.732 289.772,199.791 289.613,199.886L285.132,202.503L287.539,197.914C287.605,197.774 287.661,197.67 287.717,197.611C287.852,197.47 287.979,197.48 288.177,197.602L288.335,197.438L286.085,195.274L285.927,195.438C286.047,195.711 286.004,195.85 285.904,196.071Z" style="fill:rgb(81,28,0);fill-rule:nonzero;"/>
                    <path d="M304.516,210.598L302.164,211.788L301.853,209.164C301.829,208.894 301.817,208.741 301.855,208.669C301.908,208.568 302.025,208.556 302.169,208.632L302.226,208.662L302.332,208.46L299.15,206.79L299.044,206.991C299.309,207.222 299.318,207.52 299.375,207.936L300.022,213.106L298.789,215.453C298.646,215.726 298.55,215.768 298.21,215.681L298.104,215.883L300.97,217.387L301.075,217.186C300.811,216.955 300.791,216.853 300.935,216.579L302.318,213.944L306.727,211.668C306.896,211.591 307.095,211.457 307.467,211.413L307.573,211.212L304.852,209.783L304.746,209.985C304.775,210 304.811,210 304.84,210.016C304.969,210.084 305.011,210.179 304.958,210.28C304.921,210.352 304.765,210.472 304.516,210.598Z" style="fill:rgb(81,28,0);fill-rule:nonzero;"/>
                    <path d="M312.003,217.114C312.339,215.707 313.55,214.976 315.037,215.331C316.54,215.69 317.27,216.901 316.938,218.293C316.605,219.685 315.426,220.423 313.923,220.064C312.389,219.698 311.667,218.522 312.003,217.114ZM313.446,221.99C316.356,222.685 318.791,221.244 319.361,218.856C319.932,216.467 318.44,214.105 315.498,213.402C312.556,212.699 310.157,214.132 309.587,216.52C309.016,218.909 310.536,221.295 313.446,221.99Z" style="fill:rgb(81,28,0);fill-rule:nonzero;"/>
                    <path d="M327.647,222.889L327.368,217.156L330.498,223.255L333.117,216.875L333.397,222.609C333.412,222.917 333.335,223.003 332.998,223.1L333.009,223.328L336.095,223.177L336.084,222.95C335.739,222.885 335.653,222.808 335.638,222.499L335.291,215.369C335.276,215.06 335.353,214.975 335.69,214.877L335.679,214.65L331.423,214.858L331.434,215.085C331.665,215.139 331.783,215.231 331.79,215.361C331.793,215.426 331.768,215.573 331.71,215.723L330.351,218.899L328.867,215.861C328.794,215.702 328.74,215.591 328.736,215.51C328.73,215.38 328.839,215.277 329.063,215.201L329.052,214.973L324.894,215.176L324.905,215.403C325.25,215.468 325.335,215.545 325.35,215.854L325.698,222.984C325.713,223.293 325.636,223.378 325.299,223.476L325.31,223.703L328.104,223.567L328.092,223.34C327.747,223.275 327.662,223.198 327.647,222.889Z" style="fill:rgb(81,28,0);fill-rule:nonzero;"/>
                    <path d="M343.346,221.504L346.45,220.591L346.386,220.373C346.036,220.391 345.935,220.336 345.847,220.04L343.834,213.191C343.747,212.894 343.802,212.793 344.107,212.619L344.043,212.401L340.938,213.313L341.002,213.532C341.353,213.513 341.438,213.573 341.525,213.87L343.538,220.719C343.626,221.015 343.586,221.111 343.281,221.286L343.346,221.504Z" style="fill:rgb(81,28,0);fill-rule:nonzero;"/>
                    <path d="M355.235,216.214L352.831,211.969L358.86,213.936C359.068,214.006 359.223,214.049 359.279,214.148C359.335,214.247 359.298,214.38 359.132,214.549L359.244,214.747L361.933,213.224L361.821,213.026C361.484,213.124 361.373,213.093 361.221,212.824L357.703,206.612C357.551,206.343 357.581,206.233 357.838,205.994L357.726,205.795L355.179,207.238L355.291,207.436C355.629,207.338 355.739,207.369 355.892,207.638L357.919,211.218L352.853,209.564C352.645,209.495 352.498,209.466 352.442,209.367C352.386,209.268 352.423,209.135 352.589,208.966L352.476,208.768L349.222,210.611L349.334,210.809C349.671,210.712 349.768,210.751 349.92,211.019L353.438,217.231C353.59,217.5 353.574,217.603 353.317,217.842L353.429,218.04L355.933,216.622L355.821,216.424C355.484,216.521 355.387,216.483 355.235,216.214Z" style="fill:rgb(81,28,0);fill-rule:nonzero;"/>
                    <path d="M373.947,200.647L373.785,200.487C373.487,200.674 373.372,200.675 373.152,200.458L371.807,199.135C371.587,198.919 371.574,198.792 371.756,198.492L371.582,198.321L368.355,201.601C368.138,201.822 368.035,201.834 367.734,201.652L367.574,201.815L369.244,203.457L369.403,203.295C369.217,202.997 369.228,202.894 369.444,202.673L370.687,201.41L371.29,202.003C371.02,202.741 370.634,203.342 370.087,203.898C368.752,205.255 367.27,205.393 366.181,204.321C365.114,203.272 365.216,201.661 366.516,200.34C367.531,199.308 368.723,198.815 369.047,199.135C369.082,199.169 369.105,199.215 369.117,199.272L369.324,199.179L368.462,196.437L368.267,196.519C368.292,196.749 368.27,196.887 368.167,196.992C367.859,197.305 366.471,197.673 365,199.168C362.674,201.533 362.662,204.281 364.435,206.026C366.232,207.794 368.945,207.748 371.454,205.198C372.732,203.9 373.352,202.457 373.947,200.647Z" style="fill:rgb(81,28,0);fill-rule:nonzero;"/>
                </g>
            </g>
        </g>
    </g>
    <g id="Artboard" transform="matrix(0.804742,0,0,0.865459,0,0)">
        <rect x="0" y="0" width="235.381" height="218.868" style="fill:none;"/>
    </g>
</svg>
