<?xml version="1.0" encoding="UTF-8" standalone="no"?>
<!-- Created with Inkscape (http://www.inkscape.org/) -->

<svg
   version="1.1"
   id="svg9"
   xml:space="preserve"
   width="280"
   height="260"
   viewBox="0 0 280 260"
   xmlns="http://www.w3.org/2000/svg"
   xmlns:svg="http://www.w3.org/2000/svg"><defs
     id="defs13" /><g
     id="g15"
     transform="matrix(1.3333333,0,0,-1.3333333,-191.70628,460.54484)"><path
       d="m 143.77971,150.40864 h 210.00001 v 195 H 143.77971 Z"
       style="fill:#ffedd8;fill-opacity:1;fill-rule:nonzero;stroke:none;stroke-width:0.404721"
       id="path17" /><g
       id="g7290"
       transform="translate(0.09486473,-4.0560884)"><g
         aria-label="REAL ESTATE"
         transform="matrix(1,0,0,-1,172.915,180.8965)"
         id="text21"
         style="font-size:15px;font-family:Bellefair;-inkscape-font-specification:Bellefair-Regular;fill:#8a5a44"><path
           d="M 10.136719,0 H 7.4853516 L 4.1235352,-4.6435547 Q 3.75,-4.6289062 3.515625,-4.6289062 q -0.095215,0 -0.2050781,0 -0.1098633,-0.00732 -0.2270508,-0.014648 v 2.8857422 q 0,0.9375 0.2050781,1.16455078 0.2783203,0.32226563 0.834961,0.32226563 H 4.5117187 V 0 H 0.25634766 v -0.27099609 h 0.37353515 q 0.62988279,0 0.90087889,-0.41015625 0.1538086,-0.22705079 0.1538086,-1.07666016 v -6.4160156 q 0,-0.9375 -0.2050781,-1.1645508 Q 1.1938477,-9.6606445 0.62988281,-9.6606445 H 0.25634766 V -9.9316406 H 3.8745117 q 1.5820313,0 2.3291016,0.234375 0.7543945,0.2270508 1.274414,0.8496093 0.5273438,0.6152344 0.5273438,1.472168 0,0.9155274 -0.6005859,1.5893555 -0.5932618,0.6738281 -1.8457032,0.9521484 l 2.0507813,2.8491211 q 0.703125,0.9814453 1.2084961,1.30371096 0.5053711,0.32226562 1.3183596,0.41015625 z M 3.0834961,-5.1049805 q 0.1391602,0 0.2416992,0.00732 0.1025391,0 0.168457,0 1.4208985,0 2.1386719,-0.6152344 0.7250977,-0.6152344 0.7250977,-1.5673828 0,-0.9301758 -0.5859375,-1.5087891 Q 5.1928711,-9.375 4.2333984,-9.375 q -0.4248046,0 -1.1499023,0.1391602 z"
           style="font-family:'Times New Roman';-inkscape-font-specification:'Times New Roman, '"
           id="path7230" /><path
           d="m 18.434766,-9.3896484 v 3.9257812 h 2.182617 q 0.849609,0 1.135254,-0.2563476 0.380859,-0.3369141 0.424805,-1.1865235 h 0.270996 v 3.4570313 h -0.270996 q -0.102539,-0.7250977 -0.205079,-0.9301758 -0.131835,-0.2563477 -0.432128,-0.402832 -0.300293,-0.1464844 -0.922852,-0.1464844 h -2.182617 v 3.2739258 q 0,0.65917965 0.05859,0.80566402 0.05859,0.13916016 0.205078,0.22705079 0.146484,0.0805664 0.55664,0.0805664 h 1.684571 q 0.842285,0 1.223144,-0.1171875 0.38086,-0.1171875 0.732422,-0.46142581 0.454102,-0.4541015 0.930176,-1.3696289 H 24.11836 L 23.261426,0 h -7.653809 v -0.27099609 h 0.351563 q 0.351562,0 0.666504,-0.16845704 0.234375,-0.11718749 0.314941,-0.35156249 0.08789,-0.23437498 0.08789,-0.95947268 V -8.203125 q 0,-0.9448242 -0.19043,-1.1645508 -0.263672,-0.2929687 -0.878906,-0.2929687 h -0.351563 v -0.2709961 h 7.653809 l 0.109863,2.1752929 H 23.085645 Q 22.931836,-8.5400391 22.741406,-8.8330078 22.558301,-9.1259766 22.19209,-9.2797852 21.899121,-9.3896484 21.159375,-9.3896484 Z"
           style="font-family:'Times New Roman';-inkscape-font-specification:'Times New Roman, '"
           id="path7232" /><path
           d="m 36.082792,-3.3251953 h -3.845215 l -0.673828,1.5673828 q -0.249023,0.5786133 -0.249023,0.86425781 0,0.22705078 0.212402,0.40283203 0.219727,0.16845703 0.9375,0.21972657 V 0 h -3.127441 v -0.27099609 q 0.622558,-0.10986329 0.805664,-0.28564453 0.373535,-0.35156251 0.827637,-1.42822268 l 3.493652,-8.1738277 h 0.256348 l 3.457031,8.2617183 q 0.41748,0.99609379 0.754394,1.29638676 0.344239,0.29296875 0.952149,0.32958985 V 0 h -3.918457 v -0.27099609 q 0.593262,-0.0292969 0.79834,-0.19775391 0.212402,-0.16845703 0.212402,-0.41015625 0,-0.32226565 -0.292969,-1.01806645 z m -0.205078,-0.5419922 -1.68457,-4.0136719 -1.728516,4.0136719 z"
           style="font-family:'Times New Roman';-inkscape-font-specification:'Times New Roman, '"
           id="path7234" /><path
           d="m 54.138634,-2.746582 0.241699,0.05127 L 53.530724,0 h -7.69043 v -0.27099609 h 0.373535 q 0.629883,0 0.900879,-0.41015625 0.153809,-0.234375 0.153809,-1.08398436 v -6.4086914 q 0,-0.9301758 -0.205079,-1.1645508 -0.285644,-0.3222656 -0.849609,-0.3222656 h -0.373535 v -0.2709961 h 4.49707 v 0.2709961 q -0.791015,-0.00732 -1.113281,0.1464843 -0.314941,0.1538086 -0.432129,0.3881836 -0.117187,0.234375 -0.117187,1.1206055 v 6.2402344 q 0,0.6079101 0.117187,0.83496092 0.08789,0.15380859 0.270996,0.22705078 0.183106,0.0732422 1.142578,0.0732422 h 0.725098 q 1.142578,0 1.604004,-0.16845703 0.461426,-0.16845704 0.842285,-0.59326177 0.380859,-0.4321289 0.761719,-1.3549804 z"
           style="font-family:'Times New Roman';-inkscape-font-specification:'Times New Roman, '"
           id="path7236" /><path
           d="m 72.104767,-9.3896484 v 3.9257812 h 2.182617 q 0.849609,0 1.135254,-0.2563476 0.380859,-0.3369141 0.424805,-1.1865235 h 0.270996 v 3.4570313 h -0.270996 q -0.102539,-0.7250977 -0.205078,-0.9301758 -0.131836,-0.2563477 -0.432129,-0.402832 -0.300293,-0.1464844 -0.922852,-0.1464844 h -2.182617 v 3.2739258 q 0,0.65917965 0.05859,0.80566402 0.05859,0.13916016 0.205078,0.22705079 0.146484,0.0805664 0.55664,0.0805664 h 1.684571 q 0.842285,0 1.223144,-0.1171875 0.38086,-0.1171875 0.732422,-0.46142581 0.454102,-0.4541015 0.930176,-1.3696289 h 0.292969 L 76.931427,0 h -7.653809 v -0.27099609 h 0.351563 q 0.351562,0 0.666504,-0.16845704 0.234375,-0.11718749 0.314941,-0.35156249 0.08789,-0.23437498 0.08789,-0.95947268 V -8.203125 q 0,-0.9448242 -0.19043,-1.1645508 -0.263672,-0.2929687 -0.878906,-0.2929687 h -0.351563 v -0.2709961 h 7.653809 l 0.109863,2.1752929 H 76.755645 Q 76.601836,-8.5400391 76.411406,-8.8330078 76.228301,-9.1259766 75.86209,-9.2797852 75.569121,-9.3896484 74.829375,-9.3896484 Z"
           style="font-family:'Times New Roman';-inkscape-font-specification:'Times New Roman, '"
           id="path7238" /><path
           d="m 89.767441,-10.158691 v 3.4350582 h -0.270996 q -0.131836,-0.9887695 -0.476075,-1.574707 -0.336914,-0.5859375 -0.966796,-0.9301758 -0.629883,-0.3442383 -1.303711,-0.3442383 -0.761719,0 -1.259766,0.46875 -0.498047,0.4614258 -0.498047,1.0546875 0,0.4541016 0.314942,0.8276367 0.454101,0.5493164 2.160644,1.4648438 1.391602,0.7470703 1.896973,1.1499023 0.512695,0.3955078 0.783691,0.9375 0.27832,0.5419922 0.27832,1.1352539 0,1.1279297 -0.878906,1.9482422 -0.871582,0.81298828 -2.248535,0.81298828 -0.432129,0 -0.812988,-0.065918 -0.227051,-0.0366211 -0.944824,-0.26367187 -0.71045,-0.234375 -0.900879,-0.234375 -0.183106,0 -0.292969,0.10986328 Q 84.24498,-0.1171875 84.19371,0.22705078 H 83.922714 V -3.1787109 h 0.270996 q 0.19043,1.0693359 0.512696,1.6040039 0.322265,0.5273437 0.981445,0.87890622 0.666504,0.3515625 1.457519,0.3515625 0.915528,0 1.442872,-0.48339844 0.534668,-0.48339848 0.534668,-1.14257808 0,-0.366211 -0.205079,-0.7397461 -0.197753,-0.3735352 -0.622558,-0.6958008 -0.285645,-0.2197266 -1.560059,-0.9301758 -1.274414,-0.7177734 -1.816406,-1.1425781 -0.534668,-0.4248047 -0.812988,-0.9375 -0.278321,-0.5126953 -0.278321,-1.1279297 0,-1.069336 0.820313,-1.8383789 0.820312,-0.7763668 2.087402,-0.7763668 0.791016,0 1.677246,0.3881832 0.410157,0.1831055 0.578614,0.1831055 0.190429,0 0.307617,-0.1098633 0.124512,-0.1171875 0.197754,-0.4614254 z"
           style="font-family:'Times New Roman';-inkscape-font-specification:'Times New Roman, '"
           id="path7240" /><path
           d="m 105.3692,-9.9316406 0.10986,2.3291015 h -0.27832 q -0.0806,-0.6152343 -0.21972,-0.8789062 -0.22705,-0.4248047 -0.60791,-0.6225586 -0.37354,-0.2050781 -0.98877,-0.2050781 h -1.39893 v 7.5878906 q 0,0.91552734 0.19776,1.14257812 0.27832,0.30761719 0.85693,0.30761719 h 0.34424 V 0 h -4.211427 v -0.27099609 h 0.351562 q 0.629885,0 0.893555,-0.38085938 0.16113,-0.234375 0.16113,-1.06933593 V -9.309082 h -1.193845 q -0.695801,0 -0.98877,0.102539 -0.380859,0.1391602 -0.651855,0.534668 -0.270996,0.3955078 -0.322266,1.0693359 h -0.27832 l 0.117188,-2.3291015 z"
           style="font-family:'Times New Roman';-inkscape-font-specification:'Times New Roman, '"
           id="path7242" /><path
           d="m 117.2328,-3.3251953 h -3.84522 l -0.67383,1.5673828 q -0.24902,0.5786133 -0.24902,0.86425781 0,0.22705078 0.2124,0.40283203 0.21973,0.16845703 0.9375,0.21972657 V 0 h -3.12744 v -0.27099609 q 0.62256,-0.10986329 0.80566,-0.28564453 0.37354,-0.35156251 0.82764,-1.42822268 l 3.49365,-8.1738277 h 0.25635 l 3.45703,8.2617183 q 0.41748,0.99609379 0.7544,1.29638676 0.34424,0.29296875 0.95215,0.32958985 V 0 h -3.91846 v -0.27099609 q 0.59326,-0.0292969 0.79834,-0.19775391 0.2124,-0.16845703 0.2124,-0.41015625 0,-0.32226565 -0.29297,-1.01806645 z m -0.20508,-0.5419922 -1.68457,-4.0136719 -1.72852,4.0136719 z"
           style="font-family:'Times New Roman';-inkscape-font-specification:'Times New Roman, '"
           id="path7244" /><path
           d="m 134.6492,-9.9316406 0.10986,2.3291015 h -0.27832 q -0.0806,-0.6152343 -0.21972,-0.8789062 -0.22705,-0.4248047 -0.60791,-0.6225586 -0.37354,-0.2050781 -0.98877,-0.2050781 h -1.39893 v 7.5878906 q 0,0.91552734 0.19776,1.14257812 0.27832,0.30761719 0.85693,0.30761719 h 0.34424 V 0 h -4.21143 v -0.27099609 h 0.35156 q 0.62989,0 0.89356,-0.38085938 0.16113,-0.234375 0.16113,-1.06933593 V -9.309082 h -1.19385 q -0.6958,0 -0.98877,0.102539 -0.38086,0.1391602 -0.65185,0.534668 -0.271,0.3955078 -0.32227,1.0693359 h -0.27832 l 0.11719,-2.3291015 z"
           style="font-family:'Times New Roman';-inkscape-font-specification:'Times New Roman, '"
           id="path7246" /><path
           d="m 143.38477,-9.3896484 v 3.9257812 h 2.18261 q 0.84961,0 1.13526,-0.2563476 0.38086,-0.3369141 0.4248,-1.1865235 h 0.271 v 3.4570313 h -0.271 q -0.10254,-0.7250977 -0.20508,-0.9301758 -0.13183,-0.2563477 -0.43213,-0.402832 -0.30029,-0.1464844 -0.92285,-0.1464844 h -2.18261 v 3.2739258 q 0,0.65917965 0.0586,0.80566402 0.0586,0.13916016 0.20508,0.22705079 0.14648,0.0805664 0.55664,0.0805664 h 1.68457 q 0.84228,0 1.22314,-0.1171875 0.38086,-0.1171875 0.73242,-0.46142581 0.45411,-0.4541015 0.93018,-1.3696289 h 0.29297 L 148.21143,0 h -7.65381 v -0.27099609 h 0.35156 q 0.35156,0 0.6665,-0.16845704 0.23438,-0.11718749 0.31494,-0.35156249 0.0879,-0.23437498 0.0879,-0.95947268 V -8.203125 q 0,-0.9448242 -0.19043,-1.1645508 -0.26368,-0.2929687 -0.87891,-0.2929687 h -0.35156 v -0.2709961 h 7.65381 l 0.10986,2.1752929 h -0.28565 q -0.1538,-0.7836914 -0.34423,-1.0766601 -0.18311,-0.2929688 -0.54932,-0.4467774 -0.29297,-0.1098632 -1.03272,-0.1098632 z"
           style="font-family:'Times New Roman';-inkscape-font-specification:'Times New Roman, '"
           id="path7248" /></g><g
         aria-label="HADES"
         transform="matrix(1,0,0,-1,171.2954,199.3467)"
         id="text25"
         style="font-size:45px;font-family:Bellefair;-inkscape-font-specification:Bellefair-Regular;fill:#8a5a44"><path
           d="M 9.2504883,-15.974121 H 23.093262 v -8.525391 q 0,-2.285156 -0.285645,-3.010254 -0.219726,-0.549316 -0.922851,-0.944824 -0.944825,-0.527344 -1.999512,-0.527344 h -1.054688 v -0.812988 h 12.744141 v 0.812988 H 30.52002 q -1.054688,0 -1.999512,0.505372 -0.703125,0.351562 -0.966797,1.07666 -0.241699,0.703125 -0.241699,2.90039 v 19.2260745 q 0,2.2631836 0.285644,2.9882812 0.219727,0.5493165 0.900879,0.9448243 0.966797,0.52734372 2.021485,0.52734372 h 1.054687 V 0 H 18.830566 v -0.81298828 h 1.054688 q 1.82373,0 2.658691,-1.07666012 0.549317,-0.703125 0.549317,-3.3837891 V -14.348145 H 9.2504883 v 9.0747075 q 0,2.2631836 0.2856445,2.9882812 0.2197266,0.5493165 0.9228512,0.9448243 0.944825,0.52734372 1.999512,0.52734372 h 1.07666 V 0 H 0.76904297 V -0.81298828 H 1.8237305 q 1.8457031,0 2.680664,-1.07666012 0.5273438,-0.703125 0.5273438,-3.3837891 V -24.499512 q 0,-2.285156 -0.2856446,-3.010254 Q 4.5263672,-28.059082 3.8452148,-28.45459 2.878418,-28.981934 1.8237305,-28.981934 H 0.76904297 v -0.812988 H 13.535156 v 0.812988 h -1.07666 q -1.054687,0 -1.999512,0.505372 -0.681152,0.351562 -0.9448238,1.07666 -0.2636719,0.703125 -0.2636719,2.90039 z"
           style="font-family:'Times New Roman';-inkscape-font-specification:'Times New Roman, '"
           id="path7219" /><path
           d="M 57.03838,-9.9755859 H 45.502735 l -2.021484,4.7021484 q -0.747071,1.7358398 -0.747071,2.5927734 0,0.6811524 0.637207,1.2084961 0.65918,0.50537112 2.8125,0.65917972 V 0 h -9.382324 v -0.81298828 q 1.867676,-0.32958982 2.416992,-0.85693362 1.120606,-1.0546875 2.482911,-4.2846679 L 52.182423,-30.476074 h 0.769043 l 10.371093,24.785156 q 1.252442,2.9882813 2.263184,3.8891602 1.032715,0.87890624 2.856445,0.98876952 V 0 H 56.686817 v -0.81298828 q 1.779785,-0.0878906 2.39502,-0.59326172 0.637207,-0.5053711 0.637207,-1.2304688 0,-0.9667968 -0.878907,-3.0541992 z m -0.615235,-1.6259771 -5.053711,-12.041015 -5.185547,12.041015 z"
           style="font-family:'Times New Roman';-inkscape-font-specification:'Times New Roman, '"
           id="path7221" /><path
           d="m 70.429047,0 v -0.81298828 h 1.120605 q 1.889649,0 2.680664,-1.20849612 0.483399,-0.7250976 0.483399,-3.2519531 V -24.521484 q 0,-2.790528 -0.615235,-3.493653 -0.856933,-0.966797 -2.548828,-0.966797 h -1.120605 v -0.812988 h 12.128906 q 6.679687,0 10.151367,1.516113 3.493652,1.516114 5.603027,5.053711 2.131353,3.537598 2.131353,8.173828 0,6.2182622 -3.779302,10.3930669 Q 92.423676,0 83.744476,0 Z m 8.503418,-2.1533203 q 2.790527,0.6152344 4.680175,0.6152344 5.097657,0 8.459473,-3.581543 3.361816,-3.581543 3.361816,-9.7119141 0,-6.174316 -3.361816,-9.733887 -3.361816,-3.55957 -8.635254,-3.55957 -1.977539,0 -4.504394,0.637207 z"
           style="font-family:'Times New Roman';-inkscape-font-specification:'Times New Roman, '"
           id="path7223" /><path
           d="m 114.7943,-28.168945 v 11.777343 h 6.54785 q 2.54883,0 3.40576,-0.769043 1.14258,-1.010742 1.27441,-3.55957 h 0.81299 v 10.371094 h -0.81299 q -0.30761,-2.175293 -0.61523,-2.790527 -0.39551,-0.769043 -1.29639,-1.208497 -0.90088,-0.439453 -2.76855,-0.439453 h -6.54785 v 9.8217777 q 0,1.977539 0.17578,2.4169922 0.17578,0.4174804 0.61523,0.6811523 0.43946,0.2416992 1.66992,0.2416992 h 5.05371 q 2.52686,0 3.66944,-0.3515625 1.14258,-0.3515625 2.19726,-1.3842773 1.36231,-1.3623047 2.79053,-4.1088867 h 0.87891 L 129.27428,0 h -22.96143 v -0.81298828 h 1.05469 q 1.05469,0 1.99951,-0.50537112 0.70313,-0.3515625 0.94482,-1.0546875 0.26368,-0.703125 0.26368,-2.8784179 V -24.609375 q 0,-2.834473 -0.57129,-3.493652 -0.79102,-0.878907 -2.63672,-0.878907 h -1.05469 v -0.812988 h 22.96143 l 0.32959,6.525879 h -0.85694 q -0.46142,-2.351074 -1.03271,-3.22998 -0.54932,-0.878907 -1.64795,-1.340332 -0.87891,-0.32959 -3.09815,-0.32959 z"
           style="font-family:'Times New Roman';-inkscape-font-specification:'Times New Roman, '"
           id="path7225" /><path
           d="m 152.03232,-30.476074 v 10.305176 h -0.81299 q -0.39551,-2.966309 -1.42822,-4.724122 -1.01075,-1.757812 -2.90039,-2.790527 -1.88965,-1.032715 -3.91114,-1.032715 -2.28515,0 -3.77929,1.40625 -1.49414,1.384278 -1.49414,3.164063 0,1.362304 0.94482,2.48291 1.36231,1.647949 6.48193,4.394531 4.17481,2.241211 5.69092,3.449707 1.53809,1.186524 2.35108,2.8125 0.83496,1.6259768 0.83496,3.4057619 0,3.3837891 -2.63672,5.8447266 -2.61475,2.43896484 -6.74561,2.43896484 -1.29638,0 -2.43896,-0.1977539 -0.68115,-0.10986328 -2.83447,-0.79101563 -2.13135,-0.70312501 -2.70264,-0.70312501 -0.54932,0 -0.87891,0.32958986 -0.30761,0.32958984 -0.46142,1.36230468 h -0.81299 V -9.5361328 h 0.81299 q 0.57129,3.2080078 1.53808,4.8120117 0.9668,1.5820313 2.94434,2.6367188 1.99951,1.0546875 4.37256,1.0546875 2.74658,0 4.32861,-1.4501954 1.604,-1.4501953 1.604,-3.4277343 0,-1.0986328 -0.61523,-2.2192383 -0.59326,-1.1206055 -1.86768,-2.0874022 -0.85693,-0.65918 -4.68017,-2.790528 -3.82324,-2.15332 -5.44922,-3.427734 -1.604,-1.274414 -2.43897,-2.8125 -0.83496,-1.538086 -0.83496,-3.383789 0,-3.208008 2.46094,-5.515137 2.46094,-2.329101 6.26221,-2.329101 2.37305,0 5.03174,1.164551 1.23047,0.549316 1.73584,0.549316 0.57129,0 0.92285,-0.32959 0.37353,-0.351562 0.59326,-1.384277 z"
           style="font-family:'Times New Roman';-inkscape-font-specification:'Times New Roman, '"
           id="path7227" /></g><g
         id="g27"
         transform="translate(247.3545,276.707)"><path
           d="M 0,0 -33.939,46.553 V -30.508 H 0 Z"
           style="fill:#8a5a44;fill-opacity:1;fill-rule:nonzero;stroke:none"
           id="path29" /></g><g
         id="g31"
         transform="translate(286.585,253.3677)"><path
           d="M 0,0 -33.939,46.553 V -7.168 H 0 Z"
           style="fill:#8a5a44;fill-opacity:1;fill-rule:nonzero;stroke:none"
           id="path33" /></g></g></g></svg>
