<?xml version="1.0" encoding="UTF-8" standalone="no"?>
<!-- Created with Inkscape (http://www.inkscape.org/) -->

<svg
   version="1.1"
   id="svg7433"
   xml:space="preserve"
   width="325"
   height="175"
   viewBox="0 0 325 175"
   xmlns:xlink="http://www.w3.org/1999/xlink"
   xmlns="http://www.w3.org/2000/svg"
   xmlns:svg="http://www.w3.org/2000/svg"><defs
     id="defs7437"><linearGradient
       id="linearGradient2182"><stop
         style="stop-color:#f4f1ea;stop-opacity:1;"
         offset="0"
         id="stop2178" /><stop
         style="stop-color:#f4f1ea;stop-opacity:0;"
         offset="1"
         id="stop2180" /></linearGradient><clipPath
       clipPathUnits="userSpaceOnUse"
       id="clipPath7449"><path
         d="M 0,500 H 500 V 0 H 0 Z"
         id="path7447" /></clipPath><clipPath
       clipPathUnits="userSpaceOnUse"
       id="clipPath7505"><path
         d="M 0,500 H 500 V 0 H 0 Z"
         id="path7503" /></clipPath><clipPath
       clipPathUnits="userSpaceOnUse"
       id="clipPath7547"><path
         d="M 0,500 H 500 V 0 H 0 Z"
         id="path7545" /></clipPath><clipPath
       clipPathUnits="userSpaceOnUse"
       id="clipPath7671"><path
         d="M 0,500 H 500 V 0 H 0 Z"
         id="path7669" /></clipPath><clipPath
       clipPathUnits="userSpaceOnUse"
       id="clipPath7759"><path
         d="M 0,500 H 500 V 0 H 0 Z"
         id="path7757" /></clipPath><clipPath
       clipPathUnits="userSpaceOnUse"
       id="clipPath7791"><path
         d="M 0,500 H 500 V 0 H 0 Z"
         id="path7789" /></clipPath><clipPath
       clipPathUnits="userSpaceOnUse"
       id="clipPath7815"><path
         d="M 0,500 H 500 V 0 H 0 Z"
         id="path7813" /></clipPath><clipPath
       clipPathUnits="userSpaceOnUse"
       id="clipPath7871"><path
         d="M 0,500 H 500 V 0 H 0 Z"
         id="path7869" /></clipPath><clipPath
       clipPathUnits="userSpaceOnUse"
       id="clipPath8009"><path
         d="M 0,500 H 500 V 0 H 0 Z"
         id="path8007" /></clipPath><clipPath
       clipPathUnits="userSpaceOnUse"
       id="clipPath8057"><path
         d="M 0,500 H 500 V 0 H 0 Z"
         id="path8055" /></clipPath><linearGradient
       xlink:href="#linearGradient2182"
       id="linearGradient600"
       x1="225.49066"
       y1="136.2205"
       x2="325.65216"
       y2="-0.86956519"
       gradientUnits="userSpaceOnUse"
       spreadMethod="reflect" /></defs><rect
     style="fill:url(#linearGradient600);paint-order:markers stroke fill;fill-opacity:1"
     id="rect430"
     width="325.65216"
     height="176.08696"
     x="0"
     y="-0.86956519" /><g
     id="g7439"
     transform="matrix(1.3333333,0,0,-1.3333333,-160.83994,457.2332)"><g
       id="g27227"
       transform="translate(-104.27334,139.30923)"><g
         id="g27225"><g
           id="g2802"><g
             aria-label="ZEPHYR"
             transform="matrix(1,0,0,-1,278.8647,120.1719)"
             id="text27049"
             style="font-size:31.4634px;font-family:HamburgerHeaven;-inkscape-font-specification:HamburgerHeaven;text-align:center;letter-spacing:4.5px;text-anchor:middle;fill:#2c5aa0"><path
               d="M 5.1099588,0 5.7244783,-3.5488503 16.340303,-18.758209 H 7.7370298 l 0.6452455,-3.763932 H 21.701986 l -0.553068,3.533488 -10.754091,15.3015358 1.981825,-0.046089 h 0.599157 l 2.734612,-0.030726 h 4.363088 L 19.428264,0 Z"
               style="font-style:italic;font-weight:bold;font-stretch:condensed;font-family:Arial;-inkscape-font-specification:'Arial, Bold Italic Condensed';fill:#2c5aa0"
               id="path28735" /><path
               d="m 25.787186,0 3.85611,-22.522141 h 13.688422 l -0.645245,3.763932 h -9.878402 l -0.87569,5.115875 h 9.555779 l -0.645246,3.7639326 h -9.555778 l -1.060047,6.1144693 H 40.842914 L 40.213032,0 Z"
               style="font-style:italic;font-weight:bold;font-stretch:condensed;font-family:Arial;-inkscape-font-specification:'Arial, Bold Italic Condensed';fill:#2c5aa0"
               id="path28737" /><path
               d="m 51.288389,0 h -3.794658 l 3.85611,-22.522141 h 7.512501 q 2.089366,0 3.210865,0.599157 1.121498,0.599156 1.797469,1.889647 0.691335,1.275128 0.691335,3.13405 0,2.242996 -0.829602,4.132644 -0.814238,1.874284 -2.043277,2.7807007 -1.213676,0.9064163 -2.888242,1.229039 -0.906416,0.1689929 -3.594939,0.1689929 h -2.442715 z m 2.120092,-12.321117 h 1.167587 q 2.811427,0 3.825384,-0.384074 1.029321,-0.384075 1.689929,-1.398032 0.660609,-1.02932 0.660609,-2.381263 0,-1.459484 -0.952506,-2.012552 -0.553067,-0.322623 -2.550256,-0.322623 h -2.734612 z"
               style="font-style:italic;font-weight:bold;font-stretch:condensed;font-family:Arial;-inkscape-font-specification:'Arial, Bold Italic Condensed';fill:#2c5aa0"
               id="path28739" /><path
               d="m 81.920836,-10.062757 h -7.14379 L 73.041028,0 H 69.24637 l 3.85611,-22.522141 h 3.810021 l -1.505572,8.695452 h 7.159152 l 1.49021,-8.695452 h 3.794658 L 83.994839,0 h -3.794658 z"
               style="font-style:italic;font-weight:bold;font-stretch:condensed;font-family:Arial;-inkscape-font-specification:'Arial, Bold Italic Condensed';fill:#2c5aa0"
               id="path28741" /><path
               d="m 101.61483,0 h -3.81002 l 1.520936,-8.7722663 -5.100512,-13.7498747 h 4.040465 l 2.289081,6.360277 q 0.81424,2.273723 1.09078,3.303043 0.49161,-1.02932 1.10613,-2.135456 l 1.73602,-2.965056 2.61171,-4.562808 h 4.40918 l -8.46501,14.1800384 z"
               style="font-style:italic;font-weight:bold;font-stretch:condensed;font-family:Arial;-inkscape-font-specification:'Arial, Bold Italic Condensed';fill:#2c5aa0"
               id="path28743" /><path
               d="m 117.89824,0 h -3.79466 l 3.85611,-22.522141 h 8.2192 q 2.27372,0 3.39522,0.599157 1.1215,0.599156 1.81283,1.935736 0.7067,1.33658 0.7067,3.379858 0,2.995782 -1.47485,4.808615 -1.45948,1.79747 -4.20946,2.2276333 0.76815,0.8449644 1.50558,2.3966262 1.22904,2.611708 2.70388,7.1745155 h -4.08655 q -0.24581,-0.95250527 -1.6592,-5.177327 -0.73743,-2.1661814 -1.35195,-3.0572347 -0.44552,-0.6298825 -0.90641,-0.8603273 -0.46089,-0.2304449 -1.55167,-0.2304449 h -1.56702 z m 2.18154,-12.705191 h 2.01255 q 2.85752,0 3.85611,-0.353349 1.01396,-0.368712 1.67457,-1.33658 0.67597,-0.967868 0.67597,-2.135455 0,-1.275128 -0.84496,-1.858922 -0.49162,-0.368712 -2.15082,-0.368712 h -4.17873 z"
               style="font-style:italic;font-weight:bold;font-stretch:condensed;font-family:Arial;-inkscape-font-specification:'Arial, Bold Italic Condensed';fill:#2c5aa0"
               id="path28745" /></g><g
             id="g27093"><g
               id="g27091"
               clip-path="url(#clipPath7815)"><g
                 id="g27053"
                 transform="translate(328.1729,182.8828)"><path
                   d="m 0,0 -11.404,6.437 c -0.354,0.2 -0.676,-0.304 -0.347,-0.541 L 0.763,-3.125 0.39,-3.709 -13.044,3.875 c -0.353,0.199 -0.677,-0.305 -0.347,-0.542 l 12.514,-9.02 -0.373,-0.584 -13.434,7.583 c -0.354,0.2 -0.676,-0.304 -0.346,-0.542 l 12.513,-9.021 -0.374,-0.583 -13.433,7.583 c -0.354,0.2 -0.676,-0.305 -0.347,-0.542 L -6.048,-9.45 c 1.255,-0.904 2.629,-1.63 4.083,-2.156 l 0.337,-0.123 c 1.682,-0.609 3.553,-0.207 4.941,0.948 L 33.77,-31.19 c 1.381,-0.934 3.144,-0.74 3.892,0.43 0.748,1.169 0.187,2.851 -1.24,3.714 L 5.13,-7.942 c 0.466,1.744 0.048,3.612 -1.209,4.883 L 3.668,-2.804 C 2.581,-1.703 1.347,-0.76 0,0"
                   style="fill:#452f27;fill-opacity:1;fill-rule:nonzero;stroke:none"
                   id="path27051" /></g><g
                 id="g27057"
                 transform="translate(322.0986,155.248)"><path
                   d="m 0,0 53.008,33.463 c 0.561,0.354 1.285,-0.11 1.181,-0.766 C 53.703,29.63 50.602,22.195 33.418,12.471 32.159,11.758 30.555,12.158 29.782,13.381 L 2.447,-3.875 C 1.377,-4.551 -0.038,-4.231 -0.714,-3.161 -1.39,-2.091 -1.07,-0.676 0,0"
                   style="fill:#452f27;fill-opacity:1;fill-rule:nonzero;stroke:none"
                   id="path27055" /></g><g
                 id="g27061"
                 transform="translate(273.2617,148.1387)"><path
                   d="M 0,0 H 147.674"
                   style="fill:none;stroke:#452f27;stroke-width:2.432;stroke-linecap:round;stroke-linejoin:round;stroke-miterlimit:10;stroke-dasharray:none;stroke-opacity:1"
                   id="path27059" /></g><g
                 id="g27065"
                 transform="translate(273.2617,114.9551)"><path
                   d="M 0,0 H 147.674"
                   style="fill:none;stroke:#452f27;stroke-width:2.432;stroke-linecap:round;stroke-linejoin:round;stroke-miterlimit:10;stroke-dasharray:none;stroke-opacity:1"
                   id="path27063" /></g><g
                 id="g27069"
                 transform="translate(269.8457,139.5908)"><path
                   d="M 0,0 H -18.206"
                   style="fill:none;stroke:#452f27;stroke-width:2.432;stroke-linecap:round;stroke-linejoin:round;stroke-miterlimit:10;stroke-dasharray:none;stroke-opacity:1"
                   id="path27067" /></g><g
                 id="g27073"
                 transform="translate(269.8457,132.084)"><path
                   d="M 0,0 H -30.755"
                   style="fill:none;stroke:#452f27;stroke-width:2.432;stroke-linecap:round;stroke-linejoin:round;stroke-miterlimit:10;stroke-dasharray:none;stroke-opacity:1"
                   id="path27071" /></g><g
                 id="g27077"
                 transform="translate(269.8457,124.5762)"><path
                   d="M 0,0 H -18.206"
                   style="fill:none;stroke:#452f27;stroke-width:2.432;stroke-linecap:round;stroke-linejoin:round;stroke-miterlimit:10;stroke-dasharray:none;stroke-opacity:1"
                   id="path27075" /></g><g
                 id="g27081"
                 transform="translate(423.7109,139.5908)"><path
                   d="M 0,0 H 18.206"
                   style="fill:none;stroke:#452f27;stroke-width:2.432;stroke-linecap:round;stroke-linejoin:round;stroke-miterlimit:10;stroke-dasharray:none;stroke-opacity:1"
                   id="path27079" /></g><g
                 id="g27085"
                 transform="translate(423.7109,132.084)"><path
                   d="M 0,0 H 30.755"
                   style="fill:none;stroke:#452f27;stroke-width:2.432;stroke-linecap:round;stroke-linejoin:round;stroke-miterlimit:10;stroke-dasharray:none;stroke-opacity:1"
                   id="path27083" /></g><g
                 id="g27089"
                 transform="translate(423.7109,124.5762)"><path
                   d="M 0,0 H 18.206"
                   style="fill:none;stroke:#452f27;stroke-width:2.432;stroke-linecap:round;stroke-linejoin:round;stroke-miterlimit:10;stroke-dasharray:none;stroke-opacity:1"
                   id="path27087" /></g></g></g><g
             aria-label="EST.1990"
             transform="matrix(1,0,0,-1,293.7964,159.6514)"
             id="text27097"
             style="font-weight:bold;font-size:13.4871px;font-family:Oswald;-inkscape-font-specification:Oswald-Bold;fill:#452f27"><path
               d="M 6.7570369,0 H 1.213839 v -9.6297891 h 5.5431979 v 1.6724003 H 3.250391 v 2.1174747 h 3.2638781 v 1.6724003 H 3.250391 v 2.4816263 h 3.5066459 z"
               id="path28748" /><path
               d="m 12.920642,-2.6704457 q 0,1.2812744 -0.93061,2.05003912 Q 11.072909,0.134871 9.3735344,0.134871 q -1.5240422,0 -2.7243941,-0.57994529 V -2.3467553 q 0.6878421,0.2967162 1.4161455,0.552971 0.7417905,0.2427678 1.4700938,0.2427678 0.7552774,0 1.0654814,-0.2832291 0.32369,-0.2967161 0.32369,-0.7417904 0,-0.3641517 -0.256255,-0.6204066 Q 10.425528,-3.4526975 10.007428,-3.6684911 9.589328,-3.8977718 9.0498441,-4.1540267 8.7126666,-4.3158719 8.3215407,-4.5316655 7.9304148,-4.7609462 7.5662631,-5.0846366 7.2155985,-5.4218141 6.9863178,-5.8938625 6.7570371,-6.365911 6.7570371,-7.0267789 q 0,-1.2947616 0.8766615,-2.0095779 0.8766615,-0.7283033 2.3872164,-0.7283033 0.755278,0 1.429633,0.1753323 0.674355,0.1753322 1.429632,0.4990226 l -0.660868,1.5914778 q -0.660867,-0.269742 -1.186864,-0.4181001 -0.525997,-0.1483581 -1.0789683,-0.1483581 -0.5799453,0 -0.8901485,0.269742 -0.3102033,0.269742 -0.3102033,0.7013292 0,0.5125098 0.4585613,0.809226 0.4585614,0.2967162 1.3621968,0.7283033 0.741791,0.3506646 1.254301,0.7283034 0.525996,0.3776388 0.809226,0.8901486 0.283229,0.5125098 0.283229,1.2677874 z"
               id="path28750" /><path
               d="m 17.883895,0 h -2.036552 v -7.9304146 h -2.616498 v -1.6993745 h 7.269547 v 1.6993745 h -2.616497 z"
               id="path28752" /><path
               d="m 19.745114,-0.94409698 q 0,-0.62040662 0.337177,-0.86317442 0.337178,-0.2562548 0.822713,-0.2562548 0.472049,0 0.809226,0.2562548 0.337178,0.2427678 0.337178,0.86317442 0,0.59343239 -0.337178,0.86317438 -0.337177,0.2562549 -0.809226,0.2562549 -0.485535,0 -0.822713,-0.2562549 -0.337177,-0.26974199 -0.337177,-0.86317438 z"
               id="path28754" /><path
               d="M 80.976552,0 H 78.94 v -5.5701722 q 0,-0.3371774 0.01349,-0.9036356 0.01349,-0.5799453 0.04046,-1.0115325 -0.06744,0.080923 -0.296716,0.2967162 -0.215794,0.2023065 -0.404613,0.3641517 l -1.105942,0.8901486 -0.984558,-1.2273261 3.102032,-2.4681392 h 1.672401 z"
               id="path28756" /><path
               d="m 89.783628,-5.5162238 q 0,0.8227131 -0.121384,1.6454262 -0.121384,0.809226 -0.431587,1.5375294 -0.296716,0.7148162 -0.849687,1.2812744 -0.539484,0.55297111 -1.389172,0.8766615 -0.8362,0.3102033 -2.036552,0.3102033 -0.283229,0 -0.660868,-0.0269742 Q 83.91674,0.0944097 83.660485,0.0404613 v -1.6319391 q 0.269742,0.053948 0.566458,0.09441 0.296716,0.040461 0.593432,0.040461 1.200352,0 1.847733,-0.3776388 0.660868,-0.3776387 0.93061,-1.0519937 0.269742,-0.6878421 0.310203,-1.5779907 h -0.08092 q -0.28323,0.4720485 -0.755278,0.7957389 -0.458561,0.3236904 -1.375684,0.3236904 -1.227326,0 -1.969117,-0.7957389 -0.74179,-0.7957389 -0.74179,-2.2523456 0,-1.5645036 0.876661,-2.4546522 0.890149,-0.8901485 2.400704,-0.8901485 0.984558,0 1.780297,0.4585613 0.795739,0.4450743 1.267787,1.3891713 0.472049,0.9306099 0.472049,2.3737295 z m -3.479672,-2.5895231 q -0.593432,0 -0.971071,0.4181001 -0.377639,0.404613 -0.377639,1.2677874 0,0.7013291 0.323691,1.1059421 0.32369,0.404613 0.984558,0.404613 0.445074,0 0.782252,-0.2023065 0.337177,-0.2023065 0.525997,-0.4990227 0.188819,-0.3102032 0.188819,-0.6338936 0,-0.4450743 -0.161845,-0.8766615 -0.161845,-0.4315872 -0.485536,-0.7013292 -0.32369,-0.2832291 -0.809226,-0.2832291 z"
               id="path28758" /><path
               d="m 96.972249,-5.5162238 q 0,0.8227131 -0.121383,1.6454262 -0.121384,0.809226 -0.431588,1.5375294 -0.296716,0.7148162 -0.849687,1.2812744 -0.539484,0.55297111 -1.389171,0.8766615 -0.8362,0.3102033 -2.036552,0.3102033 -0.283229,0 -0.660868,-0.0269742 -0.377639,-0.0134871 -0.633894,-0.0674355 v -1.6319391 q 0.269742,0.053948 0.566458,0.09441 0.296717,0.040461 0.593433,0.040461 1.200352,0 1.847732,-0.3776388 0.660868,-0.3776387 0.93061,-1.0519937 0.269742,-0.6878421 0.310204,-1.5779907 h -0.08092 q -0.283229,0.4720485 -0.755278,0.7957389 -0.458561,0.3236904 -1.375684,0.3236904 -1.227326,0 -1.969116,-0.7957389 -0.741791,-0.7957389 -0.741791,-2.2523456 0,-1.5645036 0.876662,-2.4546522 0.890148,-0.8901485 2.400703,-0.8901485 0.984559,0 1.780298,0.4585613 0.795738,0.4450743 1.267787,1.3891713 0.472048,0.9306099 0.472048,2.3737295 z m -3.479671,-2.5895231 q -0.593433,0 -0.971071,0.4181001 -0.377639,0.404613 -0.377639,1.2677874 0,0.7013291 0.32369,1.1059421 0.323691,0.404613 0.984558,0.404613 0.445075,0 0.782252,-0.2023065 0.337178,-0.2023065 0.525997,-0.4990227 0.18882,-0.3102032 0.18882,-0.6338936 0,-0.4450743 -0.161846,-0.8766615 -0.161845,-0.4315872 -0.485535,-0.7013292 -0.323691,-0.2832291 -0.809226,-0.2832291 z"
               id="path28760" /><path
               d="m 104.14738,-4.8148946 q 0,1.5510165 -0.33717,2.6569587 -0.32369,1.1059421 -1.06548,1.69937451 -0.74179,0.59343239 -1.96912,0.59343239 -1.739837,0 -2.549063,-1.3082487 -0.809226,-1.3082486 -0.809226,-3.6415169 0,-1.5510164 0.323691,-2.6569586 0.32369,-1.1194293 1.06548,-1.7128617 0.741791,-0.5934323 1.969118,-0.5934323 1.72635,0 2.54906,1.3082486 0.82271,1.3082487 0.82271,3.655004 z m -4.706994,0 q 0,1.6454262 0.283229,2.4816264 0.283225,0.822713 1.051995,0.822713 0.75528,0 1.05199,-0.822713 0.29672,-0.8227131 0.29672,-2.4816264 0,-1.6454261 -0.29672,-2.4816263 -0.29671,-0.8362002 -1.05199,-0.8362002 -0.76877,0 -1.051995,0.8362002 -0.283229,0.8362002 -0.283229,2.4816263 z"
               id="path28762" /></g><g
             aria-label="AUTHENTIC"
             transform="matrix(1,0,0,-1,325.4897,102.3125)"
             id="text27101"
             style="font-weight:300;font-size:10.6045px;font-family:Oswald;-inkscape-font-specification:Oswald-Light;fill:#452f27"><path
               d="M 5.8006614,0 4.7932339,-2.608707 H 1.654302 L 0.62566549,0 H 0 l 2.9692599,-7.5928219 h 0.572643 L 6.4475359,0 Z m -1.1983085,-3.1601409 -1.018032,-2.735961 q -0.042418,-0.148463 -0.148463,-0.466598 -0.106045,-0.318135 -0.190881,-0.5620385 -0.084836,0.275717 -0.1802765,0.5620385 -0.095441,0.275717 -0.1590675,0.4772025 l -1.0498454,2.7253565 z"
               id="path28765" /><path
               d="m 11.728577,-7.5716129 v 4.8992789 q 0,1.293749 -0.75292,2.03606401 Q 10.222738,0.106045 8.8547572,0.106045 q -1.357376,0 -2.0890865,-0.74231499 Q 6.0339603,-1.378585 6.0339603,-2.693543 v -4.8780699 h 0.6150609 v 4.8780699 q 0,1.102868 0.572643,1.6861155 0.572643,0.57264301 1.675511,0.57264301 1.0710545,0 1.6436978,-0.57264301 0.583247,-0.5832475 0.583247,-1.6224885 v -4.9416969 z"
               id="path28767" /><path
               d="M 13.870686,0 H 13.255625 V -7.0201789 H 10.81659 v -0.551434 h 5.493131 v 0.551434 h -2.439035 z"
               id="path28769" /><path
               d="M 21.474112,0 H 20.859051 V -3.6903659 H 16.54302 V 0 h -0.615061 v -7.5716129 h 0.615061 v 3.329813 h 4.316031 v -3.329813 h 0.615061 z"
               id="path28771" /><path
               d="m 25.906793,0 h -4.156964 v -7.5716129 h 4.156964 v 0.551434 H 22.36489 v 2.778379 h 3.340417 v 0.5408295 H 22.36489 v 3.14953641 h 3.541903 z"
               id="path28773" /><path
               d="M 31.569597,0 H 30.912118 L 26.53246,-6.6172079 h -0.03181 q 0.02121,0.4135755 0.03181,0.8801735 0.0106,0.4559935 0.0106,0.9650095 V 0 H 25.970421 V -7.5716129 H 26.6279 l 4.369054,6.59599892 h 0.04242 q -0.02121,-0.32873952 -0.03181,-0.83775552 -0.01061,-0.5196205 -0.01061,-0.954405 v -4.8038384 h 0.572643 z"
               id="path28775" /><path
               d="m 33.542034,0 h -0.615061 v -7.0201789 h -2.439035 v -0.551434 h 5.493131 v 0.551434 h -2.439035 z"
               id="path28777" /><path
               d="m 37.296026,0 h -2.226945 v -0.38176199 l 0.805942,-0.1166495 V -7.0625969 l -0.805942,-0.127254 v -0.381762 h 2.226945 v 0.381762 l -0.805942,0.127254 v 6.56418541 l 0.805942,0.1166495 z"
               id="path28779" /><path
               d="m 41.177273,-7.1262239 q -0.933196,0 -1.60128,0.42418 -0.668083,0.4135755 -1.028636,1.166495 -0.349949,0.742315 -0.349949,1.739138 0,1.0180319 0.318135,1.7709514 0.32874,0.7529195 0.96501,1.16649501 0.63627,0.4135755 1.590675,0.4135755 0.551434,0 1.007427,-0.084836 0.466598,-0.084836 0.880174,-0.21209 V -0.21209 q -0.392367,0.148463 -0.869569,0.233299 -0.466598,0.084836 -1.081659,0.084836 -1.145286,0 -1.919415,-0.48780699 -0.763524,-0.48780699 -1.15589,-1.36798051 -0.381762,-0.8801735 -0.381762,-2.0572729 0,-1.124077 0.42418,-1.993646 0.434784,-0.8801735 1.240726,-1.378585 0.816547,-0.4984115 1.961833,-0.4984115 1.113472,0 1.993646,0.42418 l -0.243904,0.530225 q -0.827151,-0.402971 -1.749742,-0.402971 z"
               id="path28781" /></g><g
             id="g27105"
             transform="translate(321.8701,106.6025)"><path
               d="m 0,0 c 0,-0.799 -0.647,-1.446 -1.446,-1.446 -0.798,0 -1.446,0.647 -1.446,1.446 0,0.799 0.648,1.446 1.446,1.446 C -0.647,1.446 0,0.799 0,0"
               style="fill:#452f27;fill-opacity:1;fill-rule:nonzero;stroke:none"
               id="path27103" /></g><g
             id="g27109"
             transform="translate(374.2842,106.6025)"><path
               d="m 0,0 c 0,-0.799 -0.647,-1.446 -1.446,-1.446 -0.799,0 -1.447,0.647 -1.447,1.446 0,0.799 0.648,1.446 1.447,1.446 C -0.647,1.446 0,0.799 0,0"
               style="fill:#452f27;fill-opacity:1;fill-rule:nonzero;stroke:none"
               id="path27107" /></g><g
             id="g27113"
             transform="translate(409.9512,94.5439)"
             style="fill:#214478"><path
               d="m 0,0 c -42.965,-10.572 -84.41,-10.57 -127.367,0 2,2.099 2.984,3.158 4.918,5.295 -0.657,2.807 -0.967,4.21 -1.55,7.016 40.842,-9.954 79.785,-9.955 120.632,0 C -3.95,9.505 -4.261,8.102 -4.917,5.295 -2.983,3.158 -2,2.099 0,0"
               style="fill:#214478;fill-opacity:1;fill-rule:nonzero;stroke:none"
               id="path27111" /></g><g
             id="g27117"
             transform="translate(294.1191,98.2314)"><path
               d="m 0,0 c -0.165,-0.728 -0.918,-1.177 -1.681,-0.998 -0.762,0.179 -1.239,0.915 -1.064,1.641 0.174,0.724 0.926,1.166 1.68,0.989 C -0.312,1.455 0.166,0.728 0,0"
               style="fill:#f4f1ea;fill-opacity:1;fill-rule:nonzero;stroke:none"
               id="path27115" /></g><g
             id="g27121"
             transform="translate(400.543,98.7256)"><path
               d="m 0,0 c 0.172,-0.726 -0.307,-1.461 -1.069,-1.637 -0.763,-0.176 -1.515,0.275 -1.678,1.002 -0.164,0.728 0.315,1.455 1.069,1.629 C -0.923,1.169 -0.173,0.726 0,0"
               style="fill:#f4f1ea;fill-opacity:1;fill-rule:nonzero;stroke:none"
               id="path27119" /></g><g
             id="g27125"
             transform="translate(297.9023,95.4746)"><path
               d="m 0,0 c 0.132,-0.093 0.305,-0.161 0.52,-0.206 0.213,-0.044 0.4,-0.049 0.558,-0.017 0.157,0.035 0.287,0.106 0.389,0.214 C 1.568,0.102 1.65,0.23 1.712,0.378 1.772,0.524 1.825,0.705 1.869,0.92 2.1,2.068 2.216,2.644 2.447,3.793 2.49,4.007 2.513,4.193 2.513,4.352 2.514,4.51 2.488,4.657 2.438,4.795 2.388,4.933 2.299,5.046 2.169,5.135 2.04,5.224 1.87,5.29 1.661,5.333 1.451,5.376 1.271,5.382 1.116,5.352 0.963,5.321 0.836,5.253 0.735,5.146 0.634,5.039 0.553,4.914 0.49,4.769 0.429,4.622 0.374,4.443 0.329,4.229 0.087,3.082 -0.034,2.509 -0.275,1.361 -0.321,1.147 -0.344,0.961 -0.346,0.802 -0.348,0.642 -0.323,0.491 -0.272,0.35 -0.223,0.21 -0.132,0.093 0,0 m 0.42,-0.687 c -0.322,0.066 -0.588,0.17 -0.795,0.31 -0.208,0.141 -0.355,0.315 -0.445,0.522 -0.089,0.206 -0.137,0.43 -0.145,0.669 -0.008,0.241 0.022,0.511 0.086,0.812 0.225,1.052 0.337,1.577 0.562,2.629 0.064,0.298 0.148,0.553 0.253,0.765 C 0.04,5.232 0.174,5.411 0.337,5.557 0.5,5.701 0.7,5.795 0.939,5.838 1.178,5.881 1.451,5.871 1.759,5.808 2.067,5.744 2.322,5.646 2.523,5.512 2.726,5.377 2.873,5.211 2.965,5.013 3.058,4.812 3.109,4.596 3.122,4.358 3.133,4.122 3.11,3.856 3.052,3.561 2.842,2.502 2.736,1.974 2.526,0.916 2.479,0.678 2.42,0.467 2.349,0.282 2.276,0.096 2.184,-0.07 2.067,-0.221 1.953,-0.37 1.82,-0.488 1.669,-0.573 1.518,-0.658 1.337,-0.713 1.125,-0.734 0.913,-0.756 0.678,-0.741 0.42,-0.687"
               style="fill:#f4f1ea;fill-opacity:1;fill-rule:nonzero;stroke:none"
               id="path27123" /></g><g
             id="g27129"
             transform="translate(301.0869,94.3174)"><path
               d="M 0,0 C 0.493,2.545 0.739,3.816 1.233,6.361 1.414,6.326 1.504,6.309 1.685,6.274 2.136,4.14 2.37,3.072 2.858,0.937 3.22,2.917 3.399,3.906 3.761,5.886 3.972,5.847 4.077,5.828 4.289,5.79 3.829,3.239 3.6,1.964 3.141,-0.587 2.963,-0.555 2.873,-0.539 2.695,-0.507 2.198,1.652 1.96,2.732 1.501,4.893 1.119,2.894 0.928,1.894 0.545,-0.104 0.326,-0.063 0.218,-0.042 0,0"
               style="fill:#f4f1ea;fill-opacity:1;fill-rule:nonzero;stroke:none"
               id="path27127" /></g><g
             id="g27133"
             transform="translate(305.3916,93.5234)"><path
               d="M 0,0 C 0.446,2.554 0.67,3.83 1.116,6.383 1.363,6.34 1.487,6.318 1.734,6.275 1.326,3.901 1.122,2.715 0.714,0.341 1.477,0.209 1.858,0.146 2.622,0.021 2.593,-0.16 2.578,-0.25 2.549,-0.431 1.528,-0.264 1.019,-0.178 0,0"
               style="fill:#f4f1ea;fill-opacity:1;fill-rule:nonzero;stroke:none"
               id="path27131" /></g><g
             id="g27137"
             transform="translate(309.6406,92.8203)"><path
               d="M 0,0 C 0.134,0.852 0.2,1.276 0.333,2.128 -0.002,3.932 -0.163,4.834 -0.476,6.638 -0.234,6.599 -0.113,6.579 0.128,6.54 0.37,5.043 0.496,4.295 0.754,2.798 1.434,4.149 1.771,4.826 2.438,6.183 2.679,6.146 2.8,6.128 3.042,6.093 2.214,4.466 1.794,3.653 0.943,2.033 0.813,1.182 0.748,0.756 0.617,-0.095 0.37,-0.058 0.247,-0.038 0,0"
               style="fill:#f4f1ea;fill-opacity:1;fill-rule:nonzero;stroke:none"
               id="path27135" /></g><g
             id="g27141"
             transform="translate(315.2705,95.5615)"><path
               d="M 0,0 C 0.319,-0.043 0.479,-0.063 0.798,-0.105 1.207,-0.158 1.511,-0.104 1.709,0.057 1.906,0.217 2.033,0.523 2.091,0.979 2.152,1.474 2.117,1.815 1.985,2.006 1.854,2.198 1.568,2.321 1.13,2.379 0.811,2.42 0.651,2.441 0.332,2.484 0.199,1.49 0.133,0.994 0,0 m -1.104,-3.403 c 0.349,2.568 0.525,3.852 0.875,6.42 C 0.401,2.931 0.716,2.889 1.347,2.808 1.635,2.771 1.875,2.698 2.071,2.593 2.267,2.486 2.415,2.349 2.515,2.181 2.615,2.012 2.679,1.823 2.707,1.615 2.736,1.407 2.734,1.171 2.702,0.907 2.673,0.67 2.617,0.455 2.535,0.265 2.454,0.074 2.343,-0.093 2.201,-0.234 2.061,-0.375 1.881,-0.477 1.662,-0.539 1.443,-0.6 1.194,-0.613 0.916,-0.577 c -0.391,0.05 -0.586,0.076 -0.977,0.128 -0.162,-1.216 -0.243,-1.824 -0.406,-3.04 -0.255,0.034 -0.383,0.051 -0.637,0.086"
               style="fill:#f4f1ea;fill-opacity:1;fill-rule:nonzero;stroke:none"
               id="path27139" /></g><g
             id="g27145"
             transform="translate(319.2549,95.1787)"><path
               d="M 0,0 C 0.339,-0.039 0.508,-0.059 0.847,-0.097 1.248,-0.143 1.538,-0.078 1.717,0.096 1.896,0.269 2.006,0.564 2.052,0.984 2.097,1.399 2.054,1.706 1.926,1.905 1.798,2.105 1.534,2.229 1.134,2.273 0.79,2.312 0.619,2.332 0.275,2.372 0.165,1.423 0.11,0.948 0,0 m -1.06,-3.535 c 0.307,2.573 0.46,3.86 0.766,6.433 C 0.304,2.827 0.603,2.793 1.201,2.726 1.784,2.66 2.188,2.478 2.409,2.175 2.632,1.871 2.716,1.454 2.659,0.92 2.565,0.031 2.202,-0.444 1.57,-0.501 1.84,-1.863 1.978,-2.545 2.259,-3.907 2.007,-3.88 1.881,-3.867 1.63,-3.84 1.37,-2.531 1.242,-1.876 0.993,-0.566 0.575,-0.52 0.366,-0.496 -0.053,-0.447 -0.2,-1.713 -0.273,-2.345 -0.421,-3.61 c -0.256,0.029 -0.383,0.045 -0.639,0.075"
               style="fill:#f4f1ea;fill-opacity:1;fill-rule:nonzero;stroke:none"
               id="path27143" /></g><g
             id="g27149"
             transform="translate(322.4707,91.1738)"><path
               d="M 0,0 C 0.26,2.578 0.39,3.868 0.649,6.446 1.6,6.351 2.075,6.306 3.027,6.22 3.01,6.032 3.002,5.939 2.984,5.753 2.281,5.816 1.93,5.85 1.227,5.918 1.132,4.951 1.084,4.469 0.989,3.502 1.571,3.445 1.862,3.417 2.444,3.364 2.429,3.184 2.42,3.093 2.403,2.913 1.82,2.966 1.528,2.994 0.945,3.051 0.841,1.987 0.789,1.455 0.685,0.391 1.413,0.319 1.777,0.285 2.506,0.22 2.489,0.037 2.48,-0.054 2.465,-0.235 1.479,-0.146 0.985,-0.1 0,0"
               style="fill:#f4f1ea;fill-opacity:1;fill-rule:nonzero;stroke:none"
               id="path27147" /></g><g
             id="g27153"
             transform="translate(325.7441,90.8662)"><path
               d="M 0,0 C 0.294,2.576 0.44,3.864 0.73,6.44 0.974,6.42 1.096,6.409 1.339,6.39 1.676,4.104 1.852,2.961 2.214,0.677 2.929,2.878 3.28,3.979 3.969,6.185 4.219,6.167 4.344,6.158 4.593,6.141 4.479,3.551 4.423,2.256 4.313,-0.335 4.101,-0.32 3.994,-0.312 3.782,-0.298 3.876,1.768 3.923,2.8 4.019,4.864 3.365,2.84 3.032,1.828 2.356,-0.192 2.192,-0.18 2.111,-0.174 1.947,-0.161 1.598,1.935 1.428,2.983 1.101,5.079 0.877,3.029 0.765,2.004 0.538,-0.046 0.323,-0.027 0.215,-0.019 0,0"
               style="fill:#f4f1ea;fill-opacity:1;fill-rule:nonzero;stroke:none"
               id="path27151" /></g><g
             id="g27157"
             transform="translate(331.2051,90.4561)"><path
               d="M 0,0 C 0.165,2.587 0.247,3.88 0.411,6.466 0.656,6.451 0.778,6.443 1.023,6.428 0.866,3.841 0.787,2.548 0.63,-0.039 0.378,-0.024 0.252,-0.017 0,0"
               style="fill:#f4f1ea;fill-opacity:1;fill-rule:nonzero;stroke:none"
               id="path27155" /></g><g
             id="g27161"
             transform="translate(334.6924,90.1777)"><path
               d="M 0,0 C -0.27,0.014 -0.505,0.056 -0.707,0.126 -0.908,0.195 -1.07,0.287 -1.193,0.399 -1.314,0.512 -1.411,0.65 -1.481,0.812 -1.552,0.975 -1.598,1.148 -1.618,1.327 -1.64,1.506 -1.644,1.712 -1.631,1.94 -1.525,3.821 -1.473,4.762 -1.366,6.643 -1.127,6.629 -1.007,6.622 -0.767,6.609 -0.867,4.721 -0.918,3.776 -1.02,1.888 -1.027,1.726 -1.025,1.581 -1.014,1.453 -1.001,1.324 -0.975,1.201 -0.931,1.082 -0.888,0.964 -0.828,0.864 -0.75,0.783 -0.673,0.703 -0.568,0.636 -0.437,0.583 -0.308,0.53 -0.153,0.5 0.024,0.492 0.236,0.481 0.419,0.506 0.569,0.565 0.721,0.625 0.84,0.716 0.926,0.839 1.012,0.962 1.075,1.1 1.117,1.251 1.159,1.402 1.185,1.579 1.193,1.779 1.277,3.669 1.318,4.614 1.402,6.504 1.641,6.493 1.761,6.488 2,6.478 1.922,4.596 1.883,3.655 1.805,1.773 1.795,1.547 1.771,1.345 1.73,1.165 1.69,0.987 1.626,0.819 1.538,0.665 1.449,0.511 1.338,0.383 1.203,0.282 1.07,0.183 0.9,0.107 0.697,0.057 0.494,0.007 0.262,-0.013 0,0"
               style="fill:#f4f1ea;fill-opacity:1;fill-rule:nonzero;stroke:none"
               id="path27159" /></g><g
             id="g27165"
             transform="translate(337.4746,90.1406)"><path
               d="M 0,0 C 0.166,2.587 0.248,3.881 0.411,6.469 0.654,6.46 0.776,6.455 1.021,6.447 1.47,4.182 1.701,3.049 2.176,0.785 2.78,3.019 3.076,4.137 3.655,6.373 3.905,6.368 4.03,6.365 4.28,6.36 4.295,3.768 4.303,2.472 4.321,-0.121 4.108,-0.117 4.002,-0.115 3.79,-0.11 3.781,1.957 3.777,2.99 3.771,5.058 3.218,3.002 2.936,1.976 2.36,-0.076 2.197,-0.071 2.115,-0.069 1.952,-0.064 1.499,2.011 1.277,3.05 0.847,5.127 0.725,3.068 0.663,2.039 0.539,-0.02 0.323,-0.012 0.216,-0.008 0,0"
               style="fill:#f4f1ea;fill-opacity:1;fill-rule:nonzero;stroke:none"
               id="path27163" /></g><g
             id="g27169"
             transform="translate(345.709,90.4844)"><path
               d="M 0,0 C 0.147,-0.064 0.331,-0.097 0.549,-0.097 0.767,-0.097 0.95,-0.064 1.099,0 1.246,0.064 1.361,0.159 1.442,0.286 1.523,0.413 1.58,0.555 1.611,0.713 1.644,0.871 1.659,1.06 1.658,1.278 1.652,2.45 1.649,3.036 1.645,4.209 1.644,4.428 1.626,4.613 1.594,4.769 1.561,4.924 1.505,5.063 1.424,5.188 1.344,5.312 1.23,5.406 1.086,5.467 0.941,5.527 0.762,5.559 0.55,5.559 0.336,5.559 0.157,5.526 0.013,5.467 -0.132,5.406 -0.245,5.312 -0.325,5.188 -0.406,5.063 -0.463,4.924 -0.496,4.769 -0.528,4.614 -0.546,4.428 -0.547,4.209 -0.552,3.036 -0.555,2.45 -0.561,1.278 -0.562,1.06 -0.546,0.871 -0.515,0.713 -0.482,0.555 -0.426,0.413 -0.344,0.286 -0.263,0.159 -0.148,0.064 0,0 M 1.956,-1.773 C 1.643,-1.632 1.242,-1.232 0.762,-0.577 0.691,-0.585 0.62,-0.589 0.549,-0.589 c -0.327,0 -0.608,0.049 -0.84,0.145 -0.234,0.094 -0.416,0.235 -0.547,0.42 -0.131,0.184 -0.224,0.394 -0.281,0.627 -0.058,0.233 -0.084,0.504 -0.082,0.812 0.008,1.075 0.012,1.612 0.02,2.689 0.002,0.301 0.035,0.568 0.096,0.799 0.062,0.232 0.159,0.435 0.291,0.609 0.133,0.173 0.312,0.304 0.537,0.395 0.225,0.091 0.493,0.136 0.807,0.136 0.313,0 0.582,-0.045 0.805,-0.136 C 1.581,5.816 1.759,5.685 1.892,5.51 2.024,5.334 2.122,5.131 2.184,4.901 2.245,4.671 2.277,4.404 2.28,4.103 L 2.3,1.407 C 2.302,1.165 2.285,0.945 2.25,0.75 2.215,0.554 2.156,0.373 2.077,0.207 1.999,0.041 1.89,-0.1 1.749,-0.217 1.609,-0.334 1.443,-0.422 1.249,-0.482 1.37,-0.631 1.506,-0.782 1.656,-0.937 1.808,-1.094 1.935,-1.202 2.035,-1.264 2.004,-1.468 1.988,-1.569 1.956,-1.773"
               style="fill:#f4f1ea;fill-opacity:1;fill-rule:nonzero;stroke:none"
               id="path27167" /></g><g
             id="g27173"
             transform="translate(350.7383,89.9375)"><path
               d="m 0,0 c -0.271,-0.005 -0.508,0.021 -0.714,0.077 -0.205,0.057 -0.373,0.138 -0.503,0.241 -0.13,0.104 -0.235,0.236 -0.316,0.393 -0.08,0.157 -0.138,0.326 -0.171,0.504 -0.033,0.178 -0.051,0.382 -0.054,0.611 -0.021,1.884 -0.032,2.825 -0.054,4.709 0.241,0.002 0.361,0.004 0.601,0.008 0.026,-1.892 0.04,-2.837 0.066,-4.729 0.003,-0.162 0.015,-0.306 0.036,-0.433 0.02,-0.127 0.056,-0.249 0.107,-0.364 0.051,-0.115 0.117,-0.21 0.2,-0.287 C -0.719,0.655 -0.61,0.596 -0.477,0.553 -0.343,0.509 -0.187,0.489 -0.01,0.492 0.203,0.496 0.383,0.533 0.529,0.603 0.677,0.672 0.789,0.771 0.866,0.899 0.943,1.027 0.998,1.17 1.029,1.324 1.061,1.478 1.075,1.655 1.07,1.856 1.025,3.747 1.003,4.692 0.959,6.583 1.198,6.589 1.317,6.592 1.557,6.599 1.605,4.715 1.631,3.773 1.68,1.891 1.686,1.664 1.675,1.461 1.646,1.279 1.619,1.099 1.566,0.928 1.488,0.768 1.411,0.607 1.309,0.472 1.181,0.363 1.055,0.255 0.891,0.168 0.691,0.104 0.492,0.04 0.262,0.005 0,0"
               style="fill:#f4f1ea;fill-opacity:1;fill-rule:nonzero;stroke:none"
               id="path27171" /></g><g
             id="g27177"
             transform="translate(354.1914,92.2881)"><path
               d="M 0,0 C 0.572,0.019 0.858,0.029 1.431,0.053 1.088,1.437 0.919,2.13 0.585,3.516 0.355,2.109 0.238,1.406 0,0 m -0.979,-2.209 c 0.498,2.607 0.739,3.912 1.205,6.521 0.26,0.01 0.391,0.015 0.652,0.025 C 1.537,1.769 1.875,0.485 2.565,-2.079 2.314,-2.09 2.189,-2.095 1.938,-2.105 1.775,-1.419 1.694,-1.076 1.534,-0.39 0.891,-0.415 0.568,-0.427 -0.075,-0.448 -0.188,-1.146 -0.245,-1.493 -0.361,-2.19 -0.608,-2.198 -0.731,-2.202 -0.979,-2.209"
               style="fill:#f4f1ea;fill-opacity:1;fill-rule:nonzero;stroke:none"
               id="path27175" /></g><g
             id="g27181"
             transform="translate(357.5693,90.2471)"><path
               d="M 0,0 C -0.123,2.589 -0.186,3.883 -0.309,6.472 -0.059,6.483 0.066,6.49 0.315,6.502 0.437,4.097 0.498,2.894 0.619,0.487 1.39,0.526 1.775,0.548 2.546,0.593 2.556,0.41 2.562,0.318 2.572,0.137 1.544,0.076 1.029,0.049 0,0"
               style="fill:#f4f1ea;fill-opacity:1;fill-rule:nonzero;stroke:none"
               id="path27179" /></g><g
             id="g27185"
             transform="translate(360.8008,90.4229)"><path
               d="M 0,0 C -0.159,2.587 -0.238,3.88 -0.397,6.468 -0.152,6.482 -0.03,6.49 0.215,6.506 0.381,3.919 0.463,2.626 0.629,0.039 0.377,0.023 0.251,0.016 0,0"
               style="fill:#f4f1ea;fill-opacity:1;fill-rule:nonzero;stroke:none"
               id="path27183" /></g><g
             id="g27189"
             transform="translate(363.3584,90.5938)"><path
               d="M 0,0 C -0.173,2.398 -0.26,3.597 -0.433,5.995 -0.963,5.957 -1.229,5.938 -1.759,5.903 -1.771,6.09 -1.778,6.184 -1.79,6.371 -0.494,6.457 0.153,6.505 1.448,6.608 1.463,6.422 1.471,6.328 1.485,6.142 0.969,6.1 0.71,6.08 0.192,6.041 0.372,3.644 0.462,2.444 0.642,0.047 0.385,0.028 0.257,0.019 0,0"
               style="fill:#f4f1ea;fill-opacity:1;fill-rule:nonzero;stroke:none"
               id="path27187" /></g><g
             id="g27193"
             transform="translate(366.957,90.8809)"><path
               d="m 0,0 c -0.075,0.858 -0.112,1.287 -0.187,2.146 -0.756,1.67 -1.129,2.507 -1.864,4.184 0.243,0.02 0.365,0.029 0.608,0.05 C -0.85,4.984 -0.549,4.288 0.06,2.896 0.395,4.372 0.559,5.109 0.88,6.586 1.123,6.608 1.245,6.62 1.488,6.644 1.074,4.865 0.862,3.977 0.427,2.2 0.504,1.342 0.543,0.913 0.62,0.056 0.372,0.033 0.248,0.021 0,0"
               style="fill:#f4f1ea;fill-opacity:1;fill-rule:nonzero;stroke:none"
               id="path27191" /></g><g
             id="g27197"
             transform="translate(372.958,91.4043)"><path
               d="m 0,0 c -0.536,-0.061 -0.959,0.049 -1.268,0.325 -0.307,0.278 -0.512,0.691 -0.614,1.238 0.219,0.086 0.327,0.129 0.546,0.216 0.037,-0.169 0.077,-0.318 0.119,-0.445 0.043,-0.128 0.1,-0.252 0.168,-0.372 C -0.98,0.844 -0.9,0.748 -0.811,0.676 -0.723,0.605 -0.614,0.552 -0.484,0.516 -0.356,0.479 -0.212,0.472 -0.052,0.489 0.583,0.562 0.863,0.909 0.791,1.531 0.774,1.668 0.741,1.795 0.69,1.911 0.641,2.027 0.569,2.138 0.476,2.244 0.383,2.35 0.288,2.444 0.189,2.527 0.092,2.61 -0.034,2.71 -0.189,2.826 -0.713,3.21 -0.974,3.403 -1.493,3.79 -1.935,4.119 -2.18,4.531 -2.232,5.023 c -0.046,0.438 0.051,0.791 0.291,1.061 0.24,0.27 0.587,0.431 1.042,0.484 C -0.89,6.569 -0.88,6.57 -0.872,6.571 -0.394,6.625 -0.014,6.541 0.27,6.317 0.56,6.089 0.761,5.689 0.872,5.117 0.667,5.039 0.565,5.001 0.36,4.923 0.272,5.354 0.14,5.668 -0.04,5.867 -0.212,6.058 -0.462,6.134 -0.79,6.098 -0.807,6.096 -0.822,6.094 -0.838,6.092 -1.126,6.052 -1.345,5.953 -1.495,5.794 -1.646,5.636 -1.706,5.416 -1.676,5.134 -1.656,4.958 -1.604,4.802 -1.518,4.666 -1.431,4.529 -1.294,4.391 -1.104,4.249 -0.59,3.87 -0.331,3.682 0.187,3.306 0.522,3.061 0.795,2.807 1.003,2.542 1.213,2.276 1.337,1.978 1.377,1.644 1.433,1.176 1.335,0.798 1.081,0.511 0.828,0.224 0.468,0.053 0,0"
               style="fill:#f4f1ea;fill-opacity:1;fill-rule:nonzero;stroke:none"
               id="path27195" /></g><g
             id="g27201"
             transform="translate(375.3389,91.7646)"><path
               d="M 0,0 C -0.317,2.572 -0.476,3.858 -0.793,6.431 0.155,6.548 0.63,6.608 1.578,6.735 1.603,6.55 1.615,6.457 1.64,6.271 0.939,6.177 0.589,6.132 -0.113,6.043 0.009,5.08 0.069,4.598 0.19,3.635 0.771,3.708 1.062,3.745 1.642,3.822 1.666,3.643 1.678,3.553 1.701,3.373 1.12,3.296 0.829,3.259 0.247,3.185 0.381,2.124 0.448,1.594 0.582,0.533 1.309,0.625 1.672,0.672 2.397,0.77 2.422,0.588 2.434,0.497 2.458,0.316 1.476,0.185 0.984,0.121 0,0"
               style="fill:#f4f1ea;fill-opacity:1;fill-rule:nonzero;stroke:none"
               id="path27199" /></g><g
             id="g27205"
             transform="translate(378.792,95.8867)"><path
               d="m 0,0 c 0.338,0.047 0.507,0.071 0.845,0.12 0.4,0.058 0.665,0.193 0.794,0.406 0.13,0.212 0.162,0.528 0.1,0.945 C 1.678,1.884 1.56,2.17 1.384,2.33 1.209,2.492 0.923,2.544 0.524,2.486 0.182,2.437 0.011,2.412 -0.332,2.364 -0.199,1.418 -0.133,0.945 0,0 M -0.132,-3.688 C -0.485,-1.121 -0.662,0.163 -1.017,2.73 -0.42,2.813 -0.121,2.854 0.475,2.94 1.057,3.024 1.493,2.949 1.784,2.713 2.077,2.476 2.264,2.093 2.345,1.562 2.479,0.679 2.246,0.127 1.647,-0.088 2.253,-1.338 2.559,-1.962 3.176,-3.209 2.926,-3.247 2.8,-3.266 2.55,-3.304 1.967,-2.103 1.679,-1.501 1.105,-0.297 0.688,-0.357 0.48,-0.388 0.062,-0.446 0.24,-1.708 0.329,-2.338 0.506,-3.6 0.251,-3.636 0.123,-3.653 -0.132,-3.688"
               style="fill:#f4f1ea;fill-opacity:1;fill-rule:nonzero;stroke:none"
               id="path27203" /></g><g
             id="g27209"
             transform="translate(384.1133,93.0137)"><path
               d="M 0,0 C -1.043,2.457 -1.556,3.688 -2.564,6.155 -2.329,6.191 -2.212,6.21 -1.977,6.247 -1.149,4.205 -0.729,3.187 0.12,1.151 0.252,3.347 0.312,4.443 0.421,6.637 0.653,6.676 0.77,6.695 1.001,6.735 0.848,4.079 0.763,2.751 0.575,0.094 0.346,0.057 0.23,0.038 0,0"
               style="fill:#f4f1ea;fill-opacity:1;fill-rule:nonzero;stroke:none"
               id="path27207" /></g><g
             id="g27213"
             transform="translate(387.0146,93.501)"><path
               d="M 0,0 C -0.445,2.554 -0.668,3.83 -1.112,6.384 -0.87,6.426 -0.749,6.447 -0.506,6.49 -0.055,3.938 0.171,2.662 0.623,0.109 0.374,0.065 0.249,0.044 0,0"
               style="fill:#f4f1ea;fill-opacity:1;fill-rule:nonzero;stroke:none"
               id="path27211" /></g><g
             id="g27217"
             transform="translate(390.4043,94.0342)"><path
               d="m 0,0 c -0.265,-0.051 -0.504,-0.06 -0.717,-0.027 -0.214,0.031 -0.394,0.093 -0.541,0.185 -0.146,0.093 -0.274,0.22 -0.384,0.379 -0.11,0.159 -0.196,0.332 -0.26,0.517 -0.064,0.184 -0.118,0.393 -0.161,0.63 -0.184,1.013 -0.276,1.52 -0.459,2.534 -0.045,0.246 -0.07,0.469 -0.075,0.667 -0.005,0.2 0.017,0.391 0.063,0.575 0.046,0.186 0.121,0.347 0.222,0.481 0.103,0.135 0.247,0.253 0.427,0.353 0.181,0.1 0.398,0.174 0.652,0.222 0.286,0.054 0.537,0.058 0.754,0.014 C -0.261,6.486 -0.078,6.396 0.071,6.257 0.222,6.118 0.344,5.947 0.437,5.742 0.533,5.538 0.609,5.294 0.665,5.007 0.696,4.851 0.711,4.772 0.742,4.616 0.507,4.57 0.39,4.547 0.154,4.502 0.126,4.65 0.111,4.725 0.082,4.873 0.039,5.099 -0.01,5.284 -0.062,5.431 -0.115,5.577 -0.187,5.707 -0.278,5.82 -0.37,5.934 -0.486,6.009 -0.628,6.044 -0.77,6.079 -0.939,6.078 -1.14,6.041 -1.354,6 -1.526,5.932 -1.654,5.84 -1.781,5.747 -1.868,5.626 -1.915,5.478 -1.961,5.329 -1.983,5.171 -1.979,5.006 -1.977,4.842 -1.953,4.643 -1.91,4.409 -1.711,3.327 -1.611,2.786 -1.411,1.704 -1.32,1.209 -1.177,0.863 -0.979,0.667 -0.783,0.471 -0.486,0.408 -0.088,0.484 0.076,0.515 0.213,0.564 0.322,0.632 0.432,0.699 0.516,0.776 0.572,0.864 0.63,0.953 0.667,1.062 0.685,1.19 0.703,1.32 0.707,1.452 0.696,1.584 0.686,1.714 0.664,1.871 0.629,2.05 0.597,2.216 0.581,2.299 0.549,2.464 0.786,2.51 0.904,2.533 1.142,2.58 1.171,2.431 1.186,2.356 1.215,2.208 1.26,1.975 1.285,1.763 1.292,1.572 1.299,1.381 1.282,1.196 1.24,1.018 1.198,0.841 1.129,0.686 1.031,0.556 0.935,0.425 0.799,0.312 0.626,0.215 0.453,0.117 0.245,0.046 0,0"
               style="fill:#f4f1ea;fill-opacity:1;fill-rule:nonzero;stroke:none"
               id="path27215" /></g><g
             id="g27221"
             transform="translate(392.9473,94.6133)"><path
               d="m 0,0 -1.274,6.353 c 0.94,0.188 1.41,0.285 2.348,0.484 L 1.172,6.378 C 0.478,6.231 0.13,6.159 -0.564,6.018 -0.371,5.066 -0.274,4.59 -0.081,3.639 0.494,3.756 0.782,3.815 1.356,3.936 1.394,3.759 1.412,3.67 1.449,3.492 0.874,3.371 0.586,3.312 0.01,3.194 0.223,2.147 0.329,1.623 0.542,0.575 1.262,0.722 1.621,0.797 2.341,0.948 2.378,0.77 2.397,0.681 2.435,0.502 1.462,0.296 0.975,0.195 0,0"
               style="fill:#f4f1ea;fill-opacity:1;fill-rule:nonzero;stroke:none"
               id="path27219" /></g></g></g></g></g></svg>
